<svg width="1584" height="396" viewBox="0 0 1584 396" fill="none" xmlns="http://www.w3.org/2000/svg">
<rect width="1584" height="396" fill="#F5F5F5"/>
<g id="Awesome banner" clip-path="url(#clip0_0_1)">
<rect width="1584" height="396" fill="url(#paint0_linear_0_1)"/>
<ellipse id="Ellipse 2" cx="323" cy="64" rx="285" ry="288" fill="url(#paint1_linear_0_1)" fill-opacity="0.1"/>
<g id="copyright">
<path d="M75.95 334.52L72.30 334.52L72.30 311.16L77.20 311.16L83.70 330.04Q83.60 329.02 83.50 327.62Q83.41 326.23 83.33 324.79Q83.25 323.35 83.25 322.23L83.25 311.16L86.90 311.16L86.90 334.52L82 334.52L75.57 315.64Q75.63 316.57 75.73 317.88Q75.82 319.19 75.89 320.57Q75.95 321.94 75.95 323.10L75.95 334.52M98.80 334.84Q96.46 334.84 94.67 333.96Q92.88 333.08 91.89 331.53Q90.90 329.98 90.90 327.93Q90.90 325.78 92.13 324.18Q93.36 322.58 95.34 322.17L95.34 322.10Q93.65 321.75 92.61 320.38Q91.57 319 91.57 317.11Q91.57 315.26 92.48 313.85Q93.39 312.44 95.02 311.64Q96.66 310.84 98.80 310.84Q100.94 310.84 102.59 311.64Q104.24 312.44 105.15 313.85Q106.06 315.26 106.06 317.11Q106.06 319 105.01 320.38Q103.95 321.75 102.26 322.10L102.26 322.17Q104.24 322.58 105.47 324.18Q106.70 325.78 106.70 327.93Q106.70 329.98 105.71 331.53Q104.72 333.08 102.93 333.96Q101.14 334.84 98.80 334.84M98.80 320.73Q100.30 320.73 101.23 319.82Q102.16 318.90 102.16 317.46Q102.16 315.99 101.23 315.08Q100.30 314.17 98.80 314.17Q97.30 314.17 96.37 315.08Q95.44 315.99 95.44 317.46Q95.44 318.90 96.37 319.82Q97.30 320.73 98.80 320.73M98.80 331.45Q100.56 331.45 101.68 330.42Q102.80 329.40 102.80 327.74Q102.80 326.04 101.68 325Q100.56 323.96 98.80 323.96Q97.04 323.96 95.92 325Q94.80 326.04 94.80 327.74Q94.80 329.40 95.92 330.42Q97.04 331.45 98.80 331.45M114.35 334.52L110.70 334.52L110.70 311.16L115.60 311.16L122.10 330.04Q122 329.02 121.90 327.62Q121.81 326.23 121.73 324.79Q121.65 323.35 121.65 322.23L121.65 311.16L125.30 311.16L125.30 334.52L120.40 334.52L113.97 315.64Q114.03 316.57 114.13 317.88Q114.22 319.19 114.29 320.57Q114.35 321.94 114.35 323.10" fill="white" fill-opacity="0.9"/>
<path d="M161.48 325.24L151.24 325.24L151.24 322.68L161.48 322.68" fill="white" fill-opacity="0.9"/>
<path d="M195.02 334.84Q191.82 334.84 189.96 333.05Q188.11 331.26 188.11 328.12L188.11 317.56Q188.11 314.42 189.96 312.63Q191.82 310.84 195.02 310.84Q198.15 310.84 200.01 312.65Q201.87 314.46 201.87 317.56L198.99 317.56Q198.99 315.58 197.95 314.50Q196.91 313.43 195.02 313.43Q193.13 313.43 192.06 314.50Q190.99 315.58 190.99 317.56L190.99 328.12Q190.99 330.10 192.06 331.18Q193.13 332.25 195.02 332.25Q196.91 332.25 197.95 331.18Q198.99 330.10 198.99 328.12L201.87 328.12Q201.87 331.22 200.01 333.03Q198.15 334.84 195.02 334.84" fill="white" fill-opacity="0.9"/>
<path d="M213.96 334.84Q210.83 334.84 209 333.02Q207.18 331.19 207.18 327.80L207.18 317.88Q207.18 314.49 209 312.66Q210.83 310.84 213.96 310.84Q217.10 310.84 218.92 312.66Q220.75 314.49 220.75 317.85L220.75 327.80Q220.75 331.19 218.92 333.02Q217.10 334.84 213.96 334.84M213.96 332.25Q215.85 332.25 216.86 331.18Q217.87 330.10 217.87 328.12L217.87 317.56Q217.87 315.58 216.86 314.50Q215.85 313.43 213.96 313.43Q212.11 313.43 211.08 314.50Q210.06 315.58 210.06 317.56L210.06 328.12Q210.06 330.10 211.08 331.18Q212.11 332.25 213.96 332.25" fill="white" fill-opacity="0.9"/>
<path d="M228.65 334.52L225.87 334.52L225.87 311.16L230.12 311.16L233.10 321.27L236.20 311.16L240.46 311.16L240.46 334.52L237.67 334.52L237.67 323.48Q237.67 321.91 237.72 319.88Q237.77 317.85 237.87 315.77Q237.96 313.69 238.09 312.02L234.31 324.09L231.82 324.09L228.20 312.31Q228.46 314.68 228.55 317.50Q228.65 320.31 228.65 323.48" fill="white" fill-opacity="0.9"/>
<path d="M247.85 334.52L245.07 334.52L245.07 311.16L249.32 311.16L252.30 321.27L255.40 311.16L259.66 311.16L259.66 334.52L256.87 334.52L256.87 323.48Q256.87 321.91 256.92 319.88Q256.97 317.85 257.07 315.77Q257.16 313.69 257.29 312.02L253.51 324.09L251.02 324.09L247.40 312.31Q247.66 314.68 247.75 317.50Q247.85 320.31 247.85 323.48" fill="white" fill-opacity="0.9"/>
<path d="M271.56 334.84Q268.30 334.84 266.57 333.03Q264.84 331.22 264.84 328.12L264.84 311.16L267.72 311.16L267.72 328.12Q267.72 330.04 268.67 331.16Q269.61 332.28 271.56 332.28Q273.48 332.28 274.44 331.16Q275.40 330.04 275.40 328.12L275.40 311.16L278.28 311.16L278.28 328.12Q278.28 331.26 276.57 333.05Q274.86 334.84 271.56 334.84" fill="white" fill-opacity="0.9"/>
<path d="M286.83 334.52L284.04 334.52L284.04 311.16L287.88 311.16L295.02 331.16Q294.95 330.36 294.87 329.19Q294.79 328.02 294.75 326.73Q294.70 325.43 294.70 324.28L294.70 311.16L297.48 311.16L297.48 334.52L293.64 334.52L286.54 314.52Q286.60 315.29 286.67 316.46Q286.73 317.62 286.78 318.92Q286.83 320.22 286.83 321.40" fill="white" fill-opacity="0.9"/>
<path d="M316.20 334.52L303.72 334.52L303.72 331.90L308.49 331.90L308.49 313.78L303.72 313.78L303.72 311.16L316.20 311.16L316.20 313.78L311.43 313.78L311.43 331.90L316.20 331.90" fill="white" fill-opacity="0.9"/>
<path d="M330.60 334.52L327.72 334.52L327.72 313.78L321.32 313.78L321.32 311.16L337 311.16L337 313.78L330.60 313.78" fill="white" fill-opacity="0.9"/>
<path d="M349.80 334.52L346.92 334.52L346.92 325.78L339.88 311.16L342.95 311.16L347.50 320.76Q347.88 321.56 348.11 322.12Q348.33 322.68 348.39 322.94Q348.46 322.68 348.70 322.12Q348.94 321.56 349.32 320.76L353.87 311.16L356.84 311.16L349.80 325.78" fill="white" fill-opacity="0.9"/>
<path d="M382.83 334.52L380.04 334.52L380.04 311.16L383.88 311.16L391.02 331.16Q390.95 330.36 390.87 329.19Q390.79 328.02 390.75 326.73Q390.70 325.43 390.70 324.28L390.70 311.16L393.48 311.16L393.48 334.52L389.64 334.52L382.54 314.52Q382.60 315.29 382.67 316.46Q382.73 317.62 382.78 318.92Q382.83 320.22 382.83 321.40" fill="white" fill-opacity="0.9"/>
<path d="M405.96 334.84Q402.83 334.84 401 333.02Q399.18 331.19 399.18 327.80L399.18 317.88Q399.18 314.49 401 312.66Q402.83 310.84 405.96 310.84Q409.10 310.84 410.92 312.66Q412.75 314.49 412.75 317.85L412.75 327.80Q412.75 331.19 410.92 333.02Q409.10 334.84 405.96 334.84M405.96 332.25Q407.85 332.25 408.86 331.18Q409.87 330.10 409.87 328.12L409.87 317.56Q409.87 315.58 408.86 314.50Q407.85 313.43 405.96 313.43Q404.11 313.43 403.08 314.50Q402.06 315.58 402.06 317.56L402.06 328.12Q402.06 330.10 403.08 331.18Q404.11 332.25 405.96 332.25" fill="white" fill-opacity="0.9"/>
<path d="M424.55 334.52L418.51 334.52L418.51 311.16L424.55 311.16Q426.83 311.16 428.47 312.02Q430.12 312.89 431.03 314.46Q431.95 316.02 431.95 318.17L431.95 327.48Q431.95 329.62 431.03 331.21Q430.12 332.79 428.47 333.66Q426.83 334.52 424.55 334.52M421.39 313.72L421.39 331.96L424.55 331.96Q426.67 331.96 427.87 330.78Q429.07 329.59 429.07 327.48L429.07 318.17Q429.07 316.09 427.87 314.90Q426.67 313.72 424.55 313.72" fill="white" fill-opacity="0.9"/>
<path d="M451.40 334.52L437.96 334.52L437.96 311.16L451.40 311.16L451.40 313.78L440.81 313.78L440.81 321.02L450.28 321.02L450.28 323.58L440.81 323.58L440.81 331.90L451.40 331.90" fill="white" fill-opacity="0.9"/>
<path d="M463.69 334.84Q460.30 334.84 458.28 333.05Q456.27 331.26 456.27 328.12L459.15 328.12Q459.15 330.07 460.39 331.18Q461.64 332.28 463.69 332.28Q465.67 332.28 466.86 331.13Q468.04 329.98 468.04 328.12Q468.04 326.71 467.29 325.67Q466.54 324.63 465.13 324.25L461.58 323.26Q459.37 322.62 458.11 320.97Q456.84 319.32 456.84 317.08Q456.84 315.22 457.67 313.82Q458.51 312.41 460.01 311.62Q461.51 310.84 463.47 310.84Q465.45 310.84 466.97 311.62Q468.49 312.41 469.35 313.80Q470.22 315.19 470.22 317.02L467.34 317.02Q467.34 315.42 466.25 314.41Q465.16 313.40 463.47 313.40Q461.77 313.40 460.71 314.41Q459.66 315.42 459.66 317.02Q459.66 318.30 460.35 319.21Q461.03 320.12 462.28 320.47L465.93 321.50Q468.27 322.14 469.56 323.91Q470.86 325.69 470.86 328.12Q470.86 331.19 468.91 333.02Q466.95 334.84 463.69 334.84" fill="white" fill-opacity="0.9"/>
</g>
<path d="M82.36 190.92L72.04 196.08L72.04 193.99L79.48 190.34Q79.94 190.13 80.33 189.97Q80.73 189.82 80.92 189.77Q80.70 189.72 80.30 189.55Q79.89 189.38 79.48 189.19L72.04 185.52L72.04 183.36L82.36 188.52" fill="white" fill-opacity="0.7"/>
<path d="M134.99 197.88Q132.59 197.88 131.20 196.54Q129.81 195.19 129.81 192.84L129.81 184.92Q129.81 182.57 131.20 181.22Q132.59 179.88 134.99 179.88Q137.34 179.88 138.74 181.24Q140.13 182.59 140.13 184.92L137.97 184.92Q137.97 183.43 137.19 182.63Q136.41 181.82 134.99 181.82Q133.58 181.82 132.77 182.63Q131.97 183.43 131.97 184.92L131.97 192.84Q131.97 194.33 132.77 195.13Q133.58 195.94 134.99 195.94Q136.41 195.94 137.19 195.13Q137.97 194.33 137.97 192.84L140.13 192.84Q140.13 195.17 138.74 196.52Q137.34 197.88 134.99 197.88" fill="white" fill-opacity="0.7"/>
<path d="M146.37 197.64L144.21 197.64L144.21 180.12L146.37 180.12L146.37 186.96L146.39 186.96Q146.56 185.64 147.47 184.92Q148.38 184.20 149.90 184.20Q151.89 184.20 153.06 185.42Q154.24 186.65 154.24 188.76L154.24 197.64L152.08 197.64L152.08 189.12Q152.08 187.63 151.32 186.83Q150.57 186.02 149.27 186.02Q147.93 186.02 147.15 186.86Q146.37 187.70 146.37 189.24" fill="white" fill-opacity="0.7"/>
<path d="M163.60 197.88Q161.27 197.88 159.84 196.48Q158.42 195.07 158.42 192.60L158.42 189.48Q158.42 187.01 159.84 185.60Q161.27 184.20 163.60 184.20Q165.16 184.20 166.32 184.82Q167.49 185.45 168.14 186.58Q168.78 187.70 168.78 189.24L168.78 191.59L160.53 191.59L160.53 192.84Q160.53 194.30 161.37 195.16Q162.21 196.01 163.60 196.01Q164.80 196.01 165.58 195.54Q166.36 195.07 166.53 194.28L168.69 194.28Q168.47 195.94 167.08 196.91Q165.69 197.88 163.60 197.88M160.53 189.24L160.53 189.91L166.67 189.91L166.67 189.24Q166.67 187.68 165.87 186.83Q165.06 185.98 163.60 185.98Q162.14 185.98 161.33 186.83Q160.53 187.68 160.53 189.24" fill="white" fill-opacity="0.7"/>
<path d="M178.19 197.88Q175.79 197.88 174.35 196.54Q172.91 195.19 172.91 192.84L172.91 189.24Q172.91 186.89 174.35 185.54Q175.79 184.20 178.19 184.20Q180.47 184.20 181.88 185.42Q183.28 186.65 183.35 188.76L181.19 188.76Q181.12 187.49 180.33 186.80Q179.54 186.12 178.19 186.12Q176.78 186.12 175.92 186.92Q175.07 187.73 175.07 189.22L175.07 192.84Q175.07 194.33 175.92 195.14Q176.78 195.96 178.19 195.96Q179.54 195.96 180.33 195.26Q181.12 194.57 181.19 193.32L183.35 193.32Q183.28 195.43 181.88 196.66Q180.47 197.88 178.19 197.88" fill="white" fill-opacity="0.7"/>
<path d="M189.69 197.64L187.53 197.64L187.53 180.12L189.69 180.12L189.69 189.89L192.21 189.89L195.90 184.44L198.38 184.44L194.13 190.73L198.62 197.64L196.10 197.64L192.26 191.76L189.69 191.76" fill="white" fill-opacity="0.7"/>
<path d="M226.36 197.64L222.52 197.64Q220.89 197.64 219.90 196.69Q218.92 195.74 218.92 194.16L218.92 186.41L215.13 186.41L215.13 184.44L218.92 184.44L218.92 180.72L221.08 180.72L221.08 184.44L226.48 184.44L226.48 186.41L221.08 186.41L221.08 194.16Q221.08 194.83 221.48 195.25Q221.87 195.67 222.52 195.67L226.36 195.67" fill="white" fill-opacity="0.7"/>
<path d="M232.77 197.64L230.61 197.64L230.61 180.12L232.77 180.12L232.77 186.96L232.79 186.96Q232.96 185.64 233.87 184.92Q234.78 184.20 236.30 184.20Q238.29 184.20 239.46 185.42Q240.64 186.65 240.64 188.76L240.64 197.64L238.48 197.64L238.48 189.12Q238.48 187.63 237.72 186.83Q236.97 186.02 235.67 186.02Q234.33 186.02 233.55 186.86Q232.77 187.70 232.77 189.24" fill="white" fill-opacity="0.7"/>
<path d="MNaN 197.88Q247.67 197.88 246.24 196.48Q244.82 195.07 244.82 192.60L244.82 189.48Q244.82 187.01 246.24 185.60Q247.67 184.20 NaN 184.20Q251.56 184.20 252.72 184.82Q253.89 185.45 254.54 186.58Q255.18 187.70 255.18 189.24L255.18 191.59L246.93 191.59L246.93 192.84Q246.93 194.30 247.77 195.16Q248.61 196.01 NaN 196.01Q251.20 196.01 251.98 195.54Q252.76 195.07 252.93 194.28L255.09 194.28Q254.87 195.94 253.48 196.91Q252.09 197.88 NaN 197.88M246.93 189.24L246.93 189.91L253.07 189.91L253.07 189.24Q253.07 187.68 252.27 186.83Q251.46 185.98 NaN 185.98Q248.54 185.98 247.73 186.83Q246.93 187.68 246.93 189.24" fill="white" fill-opacity="0.7"/>
<path d="M275.97 197.64L273.81 197.64L273.81 184.44L275.97 184.44L275.97 186.96L275.99 186.96Q276.16 185.64 277.07 184.92Q277.98 184.20 279.50 184.20Q281.49 184.20 282.66 185.42Q283.84 186.65 283.84 188.76L283.84 197.64L281.68 197.64L281.68 189.14Q281.68 187.63 280.92 186.83Q280.17 186.02 278.87 186.02Q277.53 186.02 276.75 186.86Q275.97 187.70 275.97 189.24" fill="white" fill-opacity="0.7"/>
<path d="M293.20 197.88Q290.87 197.88 289.44 196.48Q288.02 195.07 288.02 192.60L288.02 189.48Q288.02 187.01 289.44 185.60Q290.87 184.20 293.20 184.20Q294.76 184.20 295.92 184.82Q297.09 185.45 297.74 186.58Q298.38 187.70 298.38 189.24L298.38 191.59L290.13 191.59L290.13 192.84Q290.13 194.30 290.97 195.16Q291.81 196.01 293.20 196.01Q294.40 196.01 295.18 195.54Q295.96 195.07 296.13 194.28L298.29 194.28Q298.07 195.94 296.68 196.91Q295.29 197.88 293.20 197.88M290.13 189.24L290.13 189.91L296.27 189.91L296.27 189.24Q296.27 187.68 295.47 186.83Q294.66 185.98 293.20 185.98Q291.74 185.98 290.93 186.83Q290.13 187.68 290.13 189.24" fill="white" fill-opacity="0.7"/>
<path d="M305.68 197.64L303.30 197.64L301.14 184.44L303.02 184.44L304.36 193.75Q304.43 194.28 304.50 194.92Q304.58 195.55 304.60 195.96Q304.65 195.55 304.71 194.92Q304.77 194.28 304.86 193.75L306.52 184.44L308.68 184.44L310.34 193.75Q310.43 194.28 310.52 194.92Q310.60 195.55 310.62 195.96Q310.67 195.55 310.74 194.92Q310.82 194.28 310.89 193.75L312.28 184.44L314.06 184.44L311.80 197.64L309.42 197.64L307.91 188.52Q307.82 187.85 307.73 187.09Q307.65 186.34 307.60 185.93Q307.58 186.34 307.48 187.09Q307.38 187.85 307.26 188.52" fill="white" fill-opacity="0.7"/>
<path d="M333.57 197.64L331.41 197.64L331.41 180.12L337.05 180.12Q339.50 180.12 340.95 181.52Q342.40 182.93 342.40 185.28Q342.40 187.63 340.95 189.04Q339.50 190.44 337.05 190.44L333.57 190.44L333.57 197.64M333.57 182.06L333.57 188.50L337.05 188.50Q338.46 188.50 339.32 187.62Q340.17 186.74 340.17 185.28Q340.17 183.79 339.32 182.93Q338.46 182.06 337.05 182.06" fill="white" fill-opacity="0.7"/>
<path d="M349.65 197.88Q347.61 197.88 346.41 196.74Q345.21 195.60 345.21 193.75Q345.21 192.53 345.76 191.62Q346.31 190.70 347.30 190.19Q348.28 189.67 349.55 189.67L353.63 189.67L353.63 188.64Q353.63 186.07 350.82 186.07Q349.58 186.07 348.81 186.53Q348.04 186.98 347.99 187.80L345.83 187.80Q345.95 186.24 347.28 185.22Q348.62 184.20 350.82 184.20Q353.22 184.20 354.51 185.35Q355.79 186.50 355.79 188.57L355.79 197.64L353.66 197.64L353.66 195.24L353.61 195.24Q353.42 196.46 352.38 197.17Q351.35 197.88 349.65 197.88M350.18 196.06Q351.76 196.06 352.70 195.29Q353.63 194.52 353.63 193.20L353.63 191.35L349.79 191.35Q348.74 191.35 348.08 191.99Q347.42 192.62 347.42 193.68Q347.42 194.78 348.15 195.42Q348.88 196.06 350.18 196.06" fill="white" fill-opacity="0.7"/>
<path d="M364.53 201.96L362.27 201.96L364.22 196.82L359.30 184.44L361.62 184.44L364.74 192.60Q364.94 193.08 365.10 193.61Q365.27 194.14 365.34 194.52Q365.42 194.14 365.58 193.61Q365.75 193.08 365.92 192.60L368.82 184.44L371.10 184.44" fill="white" fill-opacity="0.7"/>
<path d="M375.86 197.64L373.84 197.64L373.84 184.44L375.71 184.44L375.71 186.19L375.76 186.19Q375.88 185.30 376.47 184.75Q377.06 184.20 377.97 184.20Q378.83 184.20 379.43 184.70Q380.03 185.21 380.30 186.07L380.32 186.07Q380.49 185.21 381.08 184.70Q381.66 184.20 382.58 184.20Q383.85 184.20 384.60 185.15Q385.36 186.10 385.36 187.61L385.36 197.64L383.34 197.64L383.34 187.58Q383.34 186.79 382.96 186.32Q382.58 185.86 381.90 185.86Q381.26 185.86 380.87 186.31Q380.49 186.77 380.49 187.56L380.49 197.64L378.71 197.64L378.71 187.58Q378.71 186.79 378.33 186.32Q377.94 185.86 377.30 185.86Q376.62 185.86 376.24 186.31Q375.86 186.77 375.86 187.56" fill="white" fill-opacity="0.7"/>
<path d="M394 197.88Q391.67 197.88 390.24 196.48Q388.82 195.07 388.82 192.60L388.82 189.48Q388.82 187.01 390.24 185.60Q391.67 184.20 394 184.20Q395.56 184.20 396.72 184.82Q397.89 185.45 398.54 186.58Q399.18 187.70 399.18 189.24L399.18 191.59L390.93 191.59L390.93 192.84Q390.93 194.30 391.77 195.16Q392.61 196.01 394 196.01Q395.20 196.01 395.98 195.54Q396.76 195.07 396.93 194.28L399.09 194.28Q398.87 195.94 397.48 196.91Q396.09 197.88 394 197.88M390.93 189.24L390.93 189.91L397.07 189.91L397.07 189.24Q397.07 187.68 396.27 186.83Q395.46 185.98 394 185.98Q392.54 185.98 391.73 186.83Q390.93 187.68 390.93 189.24" fill="white" fill-opacity="0.7"/>
<path d="M405.57 197.64L403.41 197.64L403.41 184.44L405.57 184.44L405.57 186.96L405.59 186.96Q405.76 185.64 406.67 184.92Q407.58 184.20 409.10 184.20Q411.09 184.20 412.26 185.42Q413.44 186.65 413.44 188.76L413.44 197.64L411.28 197.64L411.28 189.14Q411.28 187.63 410.52 186.83Q409.77 186.02 408.47 186.02Q407.13 186.02 406.35 186.86Q405.57 187.70 405.57 189.24" fill="white" fill-opacity="0.7"/>
<path d="M427.96 197.64L424.12 197.64Q422.49 197.64 421.50 196.69Q420.52 195.74 420.52 194.16L420.52 186.41L416.73 186.41L416.73 184.44L420.52 184.44L420.52 180.72L422.68 180.72L422.68 184.44L428.08 184.44L428.08 186.41L422.68 186.41L422.68 194.16Q422.68 194.83 423.08 195.25Q423.47 195.67 424.12 195.67L427.96 195.67" fill="white" fill-opacity="0.7"/>
<path d="M437.73 197.83L436.67 197.83Q434.46 197.83 433.25 196.84Q432.04 195.84 432.04 194.02L434.20 194.02Q434.20 194.93 434.85 195.44Q435.50 195.96 436.67 195.96L437.73 195.96Q438.93 195.96 439.59 195.43Q440.25 194.90 440.25 193.94Q440.25 192.24 438.69 192.02L435.04 191.50Q433.70 191.30 432.95 190.38Q432.21 189.46 432.21 187.94Q432.21 186.22 433.40 185.23Q434.58 184.25 436.67 184.25L437.73 184.25Q439.65 184.25 440.86 185.20Q442.07 186.14 442.17 187.68L439.98 187.68Q439.94 186.98 439.32 186.53Q438.71 186.07 437.73 186.07L436.67 186.07Q435.57 186.07 434.94 186.58Q434.32 187.08 434.32 187.94Q434.32 189.34 435.59 189.53L439 190.01Q442.36 190.49 442.36 193.94Q442.36 195.79 441.15 196.81Q439.94 197.83 437.73 197.83" fill="white" fill-opacity="0.7"/>
<path d="M466 197.83Q463.62 197.83 462.22 196.44Q460.82 195.05 460.82 192.55L460.82 189.53Q460.82 187.01 462.21 185.63Q463.60 184.25 466 184.25Q468.40 184.25 469.79 185.63Q471.18 187.01 471.18 189.53L471.18 192.55Q471.18 195.05 469.78 196.44Q468.38 197.83 466 197.83M466 195.91Q467.42 195.91 468.22 195.12Q469.02 194.33 469.02 192.79L469.02 189.29Q469.02 187.75 468.22 186.96Q467.42 186.17 466 186.17Q464.61 186.17 463.79 186.96Q462.98 187.75 462.98 189.29L462.98 192.79Q462.98 194.33 463.79 195.12Q464.61 195.91 466 195.91" fill="white" fill-opacity="0.7"/>
<path d="M477.57 197.64L475.41 197.64L475.41 184.44L477.57 184.44L477.57 186.96L477.59 186.96Q477.76 185.64 478.67 184.92Q479.58 184.20 481.10 184.20Q483.09 184.20 484.26 185.42Q485.44 186.65 485.44 188.76L485.44 197.64L483.28 197.64L483.28 189.14Q483.28 187.63 482.52 186.83Q481.77 186.02 480.47 186.02Q479.13 186.02 478.35 186.86Q477.57 187.70 477.57 189.24" fill="white" fill-opacity="0.7"/>
<path d="M495.57 197.88Q494.08 197.88 493.12 197.15Q492.16 196.42 491.99 195.12L491.97 195.12L491.97 197.64L489.81 197.64L489.81 180.12L491.97 180.12L491.97 183.96L491.92 186.96L491.94 186.96Q492.14 185.69 493.11 184.94Q494.08 184.20 495.57 184.20Q497.56 184.20 498.74 185.52Q499.91 186.84 499.91 189.12L499.91 192.98Q499.91 195.24 498.74 196.56Q497.56 197.88 495.57 197.88M494.85 196.01Q496.22 196.01 496.98 195.29Q497.75 194.57 497.75 192.96L497.75 189.12Q497.75 187.49 496.98 186.78Q496.22 186.07 494.85 186.07Q493.53 186.07 492.75 186.91Q491.97 187.75 491.97 189.24L491.97 192.84Q491.97 194.33 492.75 195.17Q493.53 196.01 494.85 196.01" fill="white" fill-opacity="0.7"/>
<path d="M509.20 197.83Q506.82 197.83 505.42 196.44Q504.02 195.05 504.02 192.55L504.02 189.53Q504.02 187.01 505.41 185.63Q506.80 184.25 509.20 184.25Q511.60 184.25 512.99 185.63Q514.38 187.01 514.38 189.53L514.38 192.55Q514.38 195.05 512.98 196.44Q511.58 197.83 509.20 197.83M509.20 195.91Q510.62 195.91 511.42 195.12Q512.22 194.33 512.22 192.79L512.22 189.29Q512.22 187.75 511.42 186.96Q510.62 186.17 509.20 186.17Q507.81 186.17 506.99 186.96Q506.18 187.75 506.18 189.29L506.18 192.79Q506.18 194.33 506.99 195.12Q507.81 195.91 509.20 195.91" fill="white" fill-opacity="0.7"/>
<path d="M522.45 197.88Q520.41 197.88 519.21 196.74Q518.01 195.60 518.01 193.75Q518.01 192.53 518.56 191.62Q519.11 190.70 520.10 190.19Q521.08 189.67 522.35 189.67L526.43 189.67L526.43 188.64Q526.43 186.07 523.62 186.07Q522.38 186.07 521.61 186.53Q520.84 186.98 520.79 187.80L518.63 187.80Q518.75 186.24 520.08 185.22Q521.42 184.20 523.62 184.20Q526.02 184.20 527.31 185.35Q528.59 186.50 528.59 188.57L528.59 197.64L526.46 197.64L526.46 195.24L526.41 195.24Q526.22 196.46 525.18 197.17Q524.15 197.88 522.45 197.88M522.98 196.06Q524.56 196.06 525.50 195.29Q526.43 194.52 526.43 193.20L526.43 191.35L522.59 191.35Q521.54 191.35 520.88 191.99Q520.22 192.62 520.22 193.68Q520.22 194.78 520.95 195.42Q521.68 196.06 522.98 196.06" fill="white" fill-opacity="0.7"/>
<path d="M535.65 197.64L533.49 197.64L533.49 184.44L535.65 184.44L535.65 186.96L535.70 186.96Q535.86 185.69 536.78 184.94Q537.69 184.20 539.22 184.20Q541.29 184.20 542.40 185.44Q543.52 186.67 543.52 188.95L543.52 190.08L541.36 190.08L541.36 188.95Q541.36 186.07 538.55 186.07Q537.14 186.07 536.39 186.89Q535.65 187.70 535.65 189.24" fill="white" fill-opacity="0.7"/>
<path d="M551.63 197.88Q549.66 197.88 548.48 196.56Q547.29 195.24 547.29 192.98L547.29 189.12Q547.29 186.84 548.46 185.52Q549.64 184.20 551.63 184.20Q553.12 184.20 554.09 184.94Q555.06 185.69 555.26 186.96L555.28 186.96L555.23 183.96L555.23 180.12L557.39 180.12L557.39 197.64L555.23 197.64L555.23 195.12L555.21 195.12Q555.04 196.42 554.08 197.15Q553.12 197.88 551.63 197.88M552.35 196.01Q553.70 196.01 554.46 195.17Q555.23 194.33 555.23 192.84L555.23 189.24Q555.23 187.75 554.46 186.91Q553.70 186.07 552.35 186.07Q550.98 186.07 550.22 186.78Q549.45 187.49 549.45 189.12L549.45 192.96Q549.45 194.57 550.22 195.29Q550.98 196.01 552.35 196.01" fill="white" fill-opacity="0.7"/>
<path d="M572.92 197.64L561.64 197.64L561.64 195.67L566.32 195.67L566.32 186.41L562.12 186.41L562.12 184.44L568.48 184.44L568.48 195.67L572.92 195.67L572.92 197.64M567.16 182.06Q566.37 182.06 565.91 181.66Q565.46 181.25 565.46 180.55Q565.46 179.83 565.91 179.41Q566.37 178.99 567.16 178.99Q567.95 178.99 568.41 179.41Q568.86 179.83 568.86 180.55Q568.86 181.25 568.41 181.66Q567.95 182.06 567.16 182.06" fill="white" fill-opacity="0.7"/>
<path d="M578.37 197.64L576.21 197.64L576.21 184.44L578.37 184.44L578.37 186.96L578.39 186.96Q578.56 185.64 579.47 184.92Q580.38 184.20 581.90 184.20Q583.89 184.20 585.06 185.42Q586.24 186.65 586.24 188.76L586.24 197.64L584.08 197.64L584.08 189.14Q584.08 187.63 583.32 186.83Q582.57 186.02 581.27 186.02Q579.93 186.02 579.15 186.86Q578.37 187.70 578.37 189.24" fill="white" fill-opacity="0.7"/>
<path d="M595.96 201.96L592.26 201.96L592.26 199.99L595.98 199.99Q597.11 199.99 597.76 199.36Q598.41 198.72 598.41 197.64L598.41 196.44L598.46 194.28L598.38 194.28Q598.19 195.46 597.26 196.09Q596.32 196.73 594.90 196.73Q592.86 196.73 591.69 195.43Q590.51 194.14 590.51 191.88L590.51 189.10Q590.51 186.84 591.69 185.52Q592.86 184.20 594.90 184.20Q596.32 184.20 597.26 184.87Q598.19 185.54 598.38 186.72L598.43 186.72L598.43 184.44L600.57 184.44L600.57 197.64Q600.57 199.63 599.33 200.80Q598.10 201.96 595.96 201.96M595.55 194.93Q596.90 194.93 597.66 194.09Q598.43 193.25 598.43 191.76L598.43 189.24Q598.43 187.75 597.66 186.91Q596.90 186.07 595.55 186.07Q594.18 186.07 593.43 186.86Q592.67 187.66 592.67 189L592.67 192Q592.67 193.34 593.43 194.14Q594.18 194.93 595.55 194.93" fill="white" fill-opacity="0.7"/>
<path d="M624.76 201.96L621.06 201.96L621.06 199.99L624.78 199.99Q625.91 199.99 626.56 199.36Q627.21 198.72 627.21 197.64L627.21 196.44L627.26 194.28L627.18 194.28Q626.99 195.46 626.06 196.09Q625.12 196.73 623.70 196.73Q621.66 196.73 620.49 195.43Q619.31 194.14 619.31 191.88L619.31 189.10Q619.31 186.84 620.49 185.52Q621.66 184.20 623.70 184.20Q625.12 184.20 626.06 184.87Q626.99 185.54 627.18 186.72L627.23 186.72L627.23 184.44L629.37 184.44L629.37 197.64Q629.37 199.63 628.13 200.80Q626.90 201.96 624.76 201.96M624.35 194.93Q625.70 194.93 626.46 194.09Q627.23 193.25 627.23 191.76L627.23 189.24Q627.23 187.75 626.46 186.91Q625.70 186.07 624.35 186.07Q622.98 186.07 622.23 186.86Q621.47 187.66 621.47 189L621.47 192Q621.47 193.34 622.23 194.14Q622.98 194.93 624.35 194.93" fill="white" fill-opacity="0.7"/>
<path d="M638.78 197.88Q636.50 197.88 635.13 196.52Q633.76 195.17 633.76 192.84L633.76 184.44L635.92 184.44L635.92 192.84Q635.92 194.28 636.69 195.13Q637.46 195.98 638.78 195.98Q640.12 195.98 640.90 195.13Q641.68 194.28 641.68 192.84L641.68 184.44L643.84 184.44L643.84 192.84Q643.84 195.17 642.45 196.52Q641.06 197.88 638.78 197.88" fill="white" fill-opacity="0.7"/>
<path d="M659.32 197.64L648.04 197.64L648.04 195.67L652.72 195.67L652.72 186.41L648.52 186.41L648.52 184.44L654.88 184.44L654.88 195.67L659.32 195.67L659.32 197.64M653.56 182.06Q652.77 182.06 652.31 181.66Q651.86 181.25 651.86 180.55Q651.86 179.83 652.31 179.41Q652.77 178.99 653.56 178.99Q654.35 178.99 654.81 179.41Q655.26 179.83 655.26 180.55Q655.26 181.25 654.81 181.66Q654.35 182.06 653.56 182.06" fill="white" fill-opacity="0.7"/>
<path d="M666.83 197.88Q664.86 197.88 663.68 196.56Q662.49 195.24 662.49 192.98L662.49 189.12Q662.49 186.84 663.66 185.52Q664.84 184.20 666.83 184.20Q668.32 184.20 669.29 184.94Q670.26 185.69 670.46 186.96L670.48 186.96L670.43 183.96L670.43 180.12L672.59 180.12L672.59 197.64L670.43 197.64L670.43 195.12L670.41 195.12Q670.24 196.42 669.28 197.15Q668.32 197.88 666.83 197.88M667.55 196.01Q668.90 196.01 669.66 195.17Q670.43 194.33 670.43 192.84L670.43 189.24Q670.43 187.75 669.66 186.91Q668.90 186.07 667.55 186.07Q666.18 186.07 665.42 186.78Q664.65 187.49 664.65 189.12L664.65 192.96Q664.65 194.57 665.42 195.29Q666.18 196.01 667.55 196.01" fill="white" fill-opacity="0.7"/>
<path d="M682 197.88Q679.67 197.88 678.24 196.48Q676.82 195.07 676.82 192.60L676.82 189.48Q676.82 187.01 678.24 185.60Q679.67 184.20 682 184.20Q683.56 184.20 684.72 184.82Q685.89 185.45 686.54 186.58Q687.18 187.70 687.18 189.24L687.18 191.59L678.93 191.59L678.93 192.84Q678.93 194.30 679.77 195.16Q680.61 196.01 682 196.01Q683.20 196.01 683.98 195.54Q684.76 195.07 684.93 194.28L687.09 194.28Q686.87 195.94 685.48 196.91Q684.09 197.88 682 197.88M678.93 189.24L678.93 189.91L685.07 189.91L685.07 189.24Q685.07 187.68 684.27 186.83Q683.46 185.98 682 185.98Q680.54 185.98 679.73 186.83Q678.93 187.68 678.93 189.24" fill="white" fill-opacity="0.7"/>
<path d="M696.40 197.88Q695.51 197.88 694.97 197.35Q694.43 196.82 694.43 195.98Q694.43 195.10 694.97 194.54Q695.51 193.99 696.40 193.99Q697.29 193.99 697.83 194.54Q698.37 195.10 698.37 195.98Q698.37 196.82 697.83 197.35Q697.29 197.88 696.40 197.88" fill="white" fill-opacity="0.7"/>
<path d="M723.28 197.64L720.57 197.64L718.48 180.12L720.47 180.12L721.84 193.08Q721.94 193.87 721.98 194.72Q722.03 195.58 722.06 196.08Q722.10 195.58 722.19 194.72Q722.27 193.87 722.37 193.08L724.10 180.12L726.42 180.12L728.01 193.08Q728.10 193.87 728.20 194.72Q728.30 195.58 728.34 196.08Q728.39 195.58 728.45 194.72Q728.51 193.87 728.61 193.08L730.02 180.12L731.92 180.12L729.78 197.64L727.07 197.64L725.49 184.44Q725.39 183.62 725.34 182.84Q725.30 182.06 725.25 181.63Q725.20 182.06 725.15 182.84Q725.10 183.62 724.98 184.44" fill="white" fill-opacity="0.7"/>
<path d="M739.60 197.88Q737.27 197.88 735.84 196.48Q734.42 195.07 734.42 192.60L734.42 189.48Q734.42 187.01 735.84 185.60Q737.27 184.20 739.60 184.20Q741.16 184.20 742.32 184.82Q743.49 185.45 744.14 186.58Q744.78 187.70 744.78 189.24L744.78 191.59L736.53 191.59L736.53 192.84Q736.53 194.30 737.37 195.16Q738.21 196.01 739.60 196.01Q740.80 196.01 741.58 195.54Q742.36 195.07 742.53 194.28L744.69 194.28Q744.47 195.94 743.08 196.91Q741.69 197.88 739.60 197.88M736.53 189.24L736.53 189.91L742.67 189.91L742.67 189.24Q742.67 187.68 741.87 186.83Q741.06 185.98 739.60 185.98Q738.14 185.98 737.33 186.83Q736.53 187.68 736.53 189.24" fill="white" fill-opacity="0.7"/>
<path d="M768.59 197.88Q766.19 197.88 764.75 196.54Q763.31 195.19 763.31 192.84L763.31 189.24Q763.31 186.89 764.75 185.54Q766.19 184.20 768.59 184.20Q770.87 184.20 772.28 185.42Q773.68 186.65 773.75 188.76L771.59 188.76Q771.52 187.49 770.73 186.80Q769.94 186.12 768.59 186.12Q767.18 186.12 766.32 186.92Q765.47 187.73 765.47 189.22L765.47 192.84Q765.47 194.33 766.32 195.14Q767.18 195.96 768.59 195.96Q769.94 195.96 770.73 195.26Q771.52 194.57 771.59 193.32L773.75 193.32Q773.68 195.43 772.28 196.66Q770.87 197.88 768.59 197.88" fill="white" fill-opacity="0.7"/>
<path d="M780.45 197.64L778.29 197.64L778.29 184.44L780.45 184.44L780.45 186.96L780.50 186.96Q780.66 185.69 781.58 184.94Q782.49 184.20 784.02 184.20Q786.09 184.20 787.20 185.44Q788.32 186.67 788.32 188.95L788.32 190.08L786.16 190.08L786.16 188.95Q786.16 186.07 783.35 186.07Q781.94 186.07 781.19 186.89Q780.45 187.70 780.45 189.24" fill="white" fill-opacity="0.7"/>
<path d="M797.20 197.88Q794.87 197.88 793.44 196.48Q792.02 195.07 792.02 192.60L792.02 189.48Q792.02 187.01 793.44 185.60Q794.87 184.20 797.20 184.20Q798.76 184.20 799.92 184.82Q801.09 185.45 801.74 186.58Q802.38 187.70 802.38 189.24L802.38 191.59L794.13 191.59L794.13 192.84Q794.13 194.30 794.97 195.16Q795.81 196.01 797.20 196.01Q798.40 196.01 799.18 195.54Q799.96 195.07 800.13 194.28L802.29 194.28Q802.07 195.94 800.68 196.91Q799.29 197.88 797.20 197.88M794.13 189.24L794.13 189.91L800.27 189.91L800.27 189.24Q800.27 187.68 799.47 186.83Q798.66 185.98 797.20 185.98Q795.74 185.98 794.93 186.83Q794.13 187.68 794.13 189.24" fill="white" fill-opacity="0.7"/>
<path d="M810.45 197.88Q808.41 197.88 807.21 196.74Q806.01 195.60 806.01 193.75Q806.01 192.53 806.56 191.62Q807.11 190.70 808.10 190.19Q809.08 189.67 810.35 189.67L814.43 189.67L814.43 188.64Q814.43 186.07 811.62 186.07Q810.38 186.07 809.61 186.53Q808.84 186.98 808.79 187.80L806.63 187.80Q806.75 186.24 808.08 185.22Q809.42 184.20 811.62 184.20Q814.02 184.20 815.31 185.35Q816.59 186.50 816.59 188.57L816.59 197.64L814.46 197.64L814.46 195.24L814.41 195.24Q814.22 196.46 813.18 197.17Q812.15 197.88 810.45 197.88M810.98 196.06Q812.56 196.06 813.50 195.29Q814.43 194.52 814.43 193.20L814.43 191.35L810.59 191.35Q809.54 191.35 808.88 191.99Q808.22 192.62 808.22 193.68Q808.22 194.78 808.95 195.42Q809.68 196.06 810.98 196.06" fill="white" fill-opacity="0.7"/>
<path d="M831.16 197.64L827.32 197.64Q825.69 197.64 824.70 196.69Q823.72 195.74 823.72 194.16L823.72 186.41L819.93 186.41L819.93 184.44L823.72 184.44L823.72 180.72L825.88 180.72L825.88 184.44L831.28 184.44L831.28 186.41L825.88 186.41L825.88 194.16Q825.88 194.83 826.28 195.25Q826.67 195.67 827.32 195.67L831.16 195.67" fill="white" fill-opacity="0.7"/>
<path d="M840.40 197.88Q838.07 197.88 836.64 196.48Q835.22 195.07 835.22 192.60L835.22 189.48Q835.22 187.01 836.64 185.60Q838.07 184.20 840.40 184.20Q841.96 184.20 843.12 184.82Q844.29 185.45 844.94 186.58Q845.58 187.70 845.58 189.24L845.58 191.59L837.33 191.59L837.33 192.84Q837.33 194.30 838.17 195.16Q839.01 196.01 840.40 196.01Q841.60 196.01 842.38 195.54Q843.16 195.07 843.33 194.28L845.49 194.28Q845.27 195.94 843.88 196.91Q842.49 197.88 840.40 197.88M837.33 189.24L837.33 189.91L843.47 189.91L843.47 189.24Q843.47 187.68 842.67 186.83Q841.86 185.98 840.40 185.98Q838.94 185.98 838.13 186.83Q837.33 187.68 837.33 189.24" fill="white" fill-opacity="0.7"/>
<path d="M854.03 197.88Q852.06 197.88 850.88 196.56Q849.69 195.24 849.69 192.98L849.69 189.12Q849.69 186.84 850.86 185.52Q852.04 184.20 854.03 184.20Q855.52 184.20 856.49 184.94Q857.46 185.69 857.66 186.96L857.68 186.96L857.63 183.96L857.63 180.12L859.79 180.12L859.79 197.64L857.63 197.64L857.63 195.12L857.61 195.12Q857.44 196.42 856.48 197.15Q855.52 197.88 854.03 197.88M854.75 196.01Q856.10 196.01 856.86 195.17Q857.63 194.33 857.63 192.84L857.63 189.24Q857.63 187.75 856.86 186.91Q856.10 186.07 854.75 186.07Q853.38 186.07 852.62 186.78Q851.85 187.49 851.85 189.12L851.85 192.96Q851.85 194.57 852.62 195.29Q853.38 196.01 854.75 196.01" fill="white" fill-opacity="0.7"/>
<path d="M888.76 197.64L884.92 197.64Q883.29 197.64 882.30 196.69Q881.32 195.74 881.32 194.16L881.32 186.41L877.53 186.41L877.53 184.44L881.32 184.44L881.32 180.72L883.48 180.72L883.48 184.44L888.88 184.44L888.88 186.41L883.48 186.41L883.48 194.16Q883.48 194.83 883.88 195.25Q884.27 195.67 884.92 195.67L888.76 195.67" fill="white" fill-opacity="0.7"/>
<path d="M895.17 197.64L893.01 197.64L893.01 180.12L895.17 180.12L895.17 186.96L895.19 186.96Q895.36 185.64 896.27 184.92Q897.18 184.20 898.70 184.20Q900.69 184.20 901.86 185.42Q903.04 186.65 903.04 188.76L903.04 197.64L900.88 197.64L900.88 189.12Q900.88 187.63 900.12 186.83Q899.37 186.02 898.07 186.02Q896.73 186.02 895.95 186.86Q895.17 187.70 895.17 189.24" fill="white" fill-opacity="0.7"/>
<path d="M918.52 197.64L907.24 197.64L907.24 195.67L911.92 195.67L911.92 186.41L907.72 186.41L907.72 184.44L914.08 184.44L914.08 195.67L918.52 195.67L918.52 197.64M912.76 182.06Q911.97 182.06 911.51 181.66Q911.06 181.25 911.06 180.55Q911.06 179.83 911.51 179.41Q911.97 178.99 912.76 178.99Q913.55 178.99 914.01 179.41Q914.46 179.83 914.46 180.55Q914.46 181.25 914.01 181.66Q913.55 182.06 912.76 182.06" fill="white" fill-opacity="0.7"/>
<path d="M927.33 197.83L926.27 197.83Q924.06 197.83 922.85 196.84Q921.64 195.84 921.64 194.02L923.80 194.02Q923.80 194.93 924.45 195.44Q925.10 195.96 926.27 195.96L927.33 195.96Q928.53 195.96 929.19 195.43Q929.85 194.90 929.85 193.94Q929.85 192.24 928.29 192.02L924.64 191.50Q923.30 191.30 922.55 190.38Q921.81 189.46 921.81 187.94Q921.81 186.22 923 185.23Q924.18 184.25 926.27 184.25L927.33 184.25Q929.25 184.25 930.46 185.20Q931.67 186.14 931.77 187.68L929.58 187.68Q929.54 186.98 928.92 186.53Q928.31 186.07 927.33 186.07L926.27 186.07Q925.17 186.07 924.54 186.58Q923.92 187.08 923.92 187.94Q923.92 189.34 925.19 189.53L928.60 190.01Q931.96 190.49 931.96 193.94Q931.96 195.79 930.75 196.81Q929.54 197.83 927.33 197.83" fill="white" fill-opacity="0.7"/>
<path d="M955.96 201.96L952.26 201.96L952.26 199.99L955.98 199.99Q957.11 199.99 957.76 199.36Q958.41 198.72 958.41 197.64L958.41 196.44L958.46 194.28L958.38 194.28Q958.19 195.46 957.26 196.09Q956.32 196.73 954.90 196.73Q952.86 196.73 951.69 195.43Q950.51 194.14 950.51 191.88L950.51 189.10Q950.51 186.84 951.69 185.52Q952.86 184.20 954.90 184.20Q956.32 184.20 957.26 184.87Q958.19 185.54 958.38 186.72L958.43 186.72L958.43 184.44L960.57 184.44L960.57 197.64Q960.57 199.63 959.33 200.80Q958.10 201.96 955.96 201.96M955.55 194.93Q956.90 194.93 957.66 194.09Q958.43 193.25 958.43 191.76L958.43 189.24Q958.43 187.75 957.66 186.91Q956.90 186.07 955.55 186.07Q954.18 186.07 953.43 186.86Q952.67 187.66 952.67 189L952.67 192Q952.67 193.34 953.43 194.14Q954.18 194.93 955.55 194.93" fill="white" fill-opacity="0.7"/>
<path d="M969.98 197.88Q967.70 197.88 966.33 196.52Q964.96 195.17 964.96 192.84L964.96 184.44L967.12 184.44L967.12 192.84Q967.12 194.28 967.89 195.13Q968.66 195.98 969.98 195.98Q971.32 195.98 972.10 195.13Q972.88 194.28 972.88 192.84L972.88 184.44L975.04 184.44L975.04 192.84Q975.04 195.17 973.65 196.52Q972.26 197.88 969.98 197.88" fill="white" fill-opacity="0.7"/>
<path d="M990.52 197.64L979.24 197.64L979.24 195.67L983.92 195.67L983.92 186.41L979.72 186.41L979.72 184.44L986.08 184.44L986.08 195.67L990.52 195.67L990.52 197.64M984.76 182.06Q983.97 182.06 983.51 181.66Q983.06 181.25 983.06 180.55Q983.06 179.83 983.51 179.41Q983.97 178.99 984.76 178.99Q985.55 178.99 986.01 179.41Q986.46 179.83 986.46 180.55Q986.46 181.25 986.01 181.66Q985.55 182.06 984.76 182.06" fill="white" fill-opacity="0.7"/>
<path d="M998.03 197.88Q996.06 197.88 994.88 196.56Q993.69 195.24 993.69 192.98L993.69 189.12Q993.69 186.84 994.86 185.52Q996.04 184.20 998.03 184.20Q999.52 184.20 1000.49 184.94Q1001.46 185.69 1001.66 186.96L1001.68 186.96L1001.63 183.96L1001.63 180.12L1003.79 180.12L1003.79 197.64L1001.63 197.64L1001.63 195.12L1001.61 195.12Q1001.44 196.42 1000.48 197.15Q999.52 197.88 998.03 197.88M998.75 196.01Q1000.10 196.01 1000.86 195.17Q1001.63 194.33 1001.63 192.84L1001.63 189.24Q1001.63 187.75 1000.86 186.91Q1000.10 186.07 998.75 186.07Q997.38 186.07 996.62 186.78Q995.85 187.49 995.85 189.12L995.85 192.96Q995.85 194.57 996.62 195.29Q997.38 196.01 998.75 196.01" fill="white" fill-opacity="0.7"/>
<path d="M1013.20 197.88Q1010.87 197.88 1009.44 196.48Q1008.02 195.07 1008.02 192.60L1008.02 189.48Q1008.02 187.01 1009.44 185.60Q1010.87 184.20 1013.20 184.20Q1014.76 184.20 1015.92 184.82Q1017.09 185.45 1017.74 186.58Q1018.38 187.70 1018.38 189.24L1018.38 191.59L1010.13 191.59L1010.13 192.84Q1010.13 194.30 1010.97 195.16Q1011.81 196.01 1013.20 196.01Q1014.40 196.01 1015.18 195.54Q1015.96 195.07 1016.13 194.28L1018.29 194.28Q1018.07 195.94 1016.68 196.91Q1015.29 197.88 1013.20 197.88M1010.13 189.24L1010.13 189.91L1016.27 189.91L1016.27 189.24Q1016.27 187.68 1015.47 186.83Q1014.66 185.98 1013.20 185.98Q1011.74 185.98 1010.93 186.83Q1010.13 187.68 1010.13 189.24" fill="white" fill-opacity="0.7"/>
<path d="M1047.16 197.64L1043.32 197.64Q1041.69 197.64 1040.70 196.69Q1039.72 195.74 1039.72 194.16L1039.72 186.41L1035.93 186.41L1035.93 184.44L1039.72 184.44L1039.72 180.72L1041.88 180.72L1041.88 184.44L1047.28 184.44L1047.28 186.41L1041.88 186.41L1041.88 194.16Q1041.88 194.83 1042.28 195.25Q1042.67 195.67 1043.32 195.67L1047.16 195.67" fill="white" fill-opacity="0.7"/>
<path d="M1056.40 197.83Q1054.02 197.83 1052.62 196.44Q1051.22 195.05 1051.22 192.55L1051.22 189.53Q1051.22 187.01 1052.61 185.63Q1054 184.25 1056.40 184.25Q1058.80 184.25 1060.19 185.63Q1061.58 187.01 1061.58 189.53L1061.58 192.55Q1061.58 195.05 1060.18 196.44Q1058.78 197.83 1056.40 197.83M1056.40 195.91Q1057.82 195.91 1058.62 195.12Q1059.42 194.33 1059.42 192.79L1059.42 189.29Q1059.42 187.75 1058.62 186.96Q1057.82 186.17 1056.40 186.17Q1055.01 186.17 1054.19 186.96Q1053.38 187.75 1053.38 189.29L1053.38 192.79Q1053.38 194.33 1054.19 195.12Q1055.01 195.91 1056.40 195.91" fill="white" fill-opacity="0.7"/>
<path d="M83.32 229.64L72.04 229.64L72.04 227.67L76.72 227.67L76.72 218.41L72.52 218.41L72.52 216.44L78.88 216.44L78.88 227.67L83.32 227.67L83.32 229.64M77.56 214.06Q76.77 214.06 76.31 213.66Q75.86 213.25 75.86 212.55Q75.86 211.83 76.31 211.41Q76.77 210.99 77.56 210.99Q78.35 210.99 78.81 211.41Q79.26 211.83 79.26 212.55Q79.26 213.25 78.81 213.66Q78.35 214.06 77.56 214.06" fill="white" fill-opacity="0.7"/>
<path d="M87.86 229.64L85.84 229.64L85.84 216.44L87.71 216.44L87.71 218.19L87.76 218.19Q87.88 217.30 88.47 216.75Q89.06 216.20 89.97 216.20Q90.83 216.20 91.43 216.70Q92.03 217.21 92.30 218.07L92.32 218.07Q92.49 217.21 93.08 216.70Q93.66 216.20 94.58 216.20Q95.85 216.20 96.60 217.15Q97.36 218.10 97.36 219.61L97.36 229.64L95.34 229.64L95.34 219.58Q95.34 218.79 94.96 218.32Q94.58 217.86 93.90 217.86Q93.26 217.86 92.87 218.31Q92.49 218.77 92.49 219.56L92.49 229.64L90.71 229.64L90.71 219.58Q90.71 218.79 90.33 218.32Q89.94 217.86 89.30 217.86Q88.62 217.86 88.24 218.31Q87.86 218.77 87.86 219.56" fill="white" fill-opacity="0.7"/>
<path d="M103.17 233.96L101.01 233.96L101.01 216.44L103.17 216.44L103.17 218.96L103.19 218.96Q103.36 217.66 104.32 216.93Q105.28 216.20 106.77 216.20Q108.76 216.20 109.94 217.51Q111.11 218.82 111.11 221.10L111.11 224.96Q111.11 227.24 109.94 228.56Q108.76 229.88 106.77 229.88Q105.28 229.88 104.32 229.14Q103.36 228.39 103.19 227.12L103.12 227.12L103.17 230.12L103.17 233.96M106.05 228.01Q107.42 228.01 108.18 227.29Q108.95 226.57 108.95 224.96L108.95 221.12Q108.95 219.49 108.18 218.78Q107.42 218.07 106.05 218.07Q104.73 218.07 103.95 218.91Q103.17 219.75 103.17 221.24L103.17 224.84Q103.17 226.33 103.95 227.17Q104.73 228.01 106.05 228.01" fill="white" fill-opacity="0.7"/>
<path d="M118.05 229.64L115.89 229.64L115.89 216.44L118.05 216.44L118.05 218.96L118.10 218.96Q118.26 217.69 119.18 216.94Q120.09 216.20 121.62 216.20Q123.69 216.20 124.80 217.44Q125.92 218.67 125.92 220.95L125.92 222.08L123.76 222.08L123.76 220.95Q123.76 218.07 120.95 218.07Q119.54 218.07 118.79 218.89Q118.05 219.70 118.05 221.24" fill="white" fill-opacity="0.7"/>
<path d="M134.80 229.83Q132.42 229.83 131.02 228.44Q129.62 227.05 129.62 224.55L129.62 221.53Q129.62 219.01 131.01 217.63Q132.40 216.25 134.80 216.25Q137.20 216.25 138.59 217.63Q139.98 219.01 139.98 221.53L139.98 224.55Q139.98 227.05 138.58 228.44Q137.18 229.83 134.80 229.83M134.80 227.91Q136.22 227.91 137.02 227.12Q137.82 226.33 137.82 224.79L137.82 221.29Q137.82 219.75 137.02 218.96Q136.22 218.17 134.80 218.17Q133.41 218.17 132.59 218.96Q131.78 219.75 131.78 221.29L131.78 224.79Q131.78 226.33 132.59 227.12Q133.41 227.91 134.80 227.91" fill="white" fill-opacity="0.7"/>
<path d="M150.62 229.64L147.78 229.64L143.30 216.44L145.62 216.44L148.50 225.32Q148.77 226.11 148.96 226.84Q149.15 227.58 149.25 227.98Q149.37 227.58 149.54 226.84Q149.70 226.11 149.94 225.32L152.82 216.44L155.10 216.44" fill="white" fill-opacity="0.7"/>
<path d="M163.60 229.88Q161.27 229.88 159.84 228.48Q158.42 227.07 158.42 224.60L158.42 221.48Q158.42 219.01 159.84 217.60Q161.27 216.20 163.60 216.20Q165.16 216.20 166.32 216.82Q167.49 217.45 168.14 218.58Q168.78 219.70 168.78 221.24L168.78 223.59L160.53 223.59L160.53 224.84Q160.53 226.30 161.37 227.16Q162.21 228.01 163.60 228.01Q164.80 228.01 165.58 227.54Q166.36 227.07 166.53 226.28L168.69 226.28Q168.47 227.94 167.08 228.91Q165.69 229.88 163.60 229.88M160.53 221.24L160.53 221.91L166.67 221.91L166.67 221.24Q166.67 219.68 165.87 218.83Q165.06 217.98 163.60 217.98Q162.14 217.98 161.33 218.83Q160.53 219.68 160.53 221.24" fill="white" fill-opacity="0.7"/>
<path d="M197.56 229.64L193.72 229.64Q192.09 229.64 191.10 228.69Q190.12 227.74 190.12 226.16L190.12 218.41L186.33 218.41L186.33 216.44L190.12 216.44L190.12 212.72L192.28 212.72L192.28 216.44L197.68 216.44L197.68 218.41L192.28 218.41L192.28 226.16Q192.28 226.83 192.68 227.25Q193.07 227.67 193.72 227.67L197.56 227.67" fill="white" fill-opacity="0.7"/>
<path d="M203.97 229.64L201.81 229.64L201.81 212.12L203.97 212.12L203.97 218.96L203.99 218.96Q204.16 217.64 205.07 216.92Q205.98 216.20 207.50 216.20Q209.49 216.20 210.66 217.42Q211.84 218.65 211.84 220.76L211.84 229.64L209.68 229.64L209.68 221.12Q209.68 219.63 208.92 218.83Q208.17 218.02 206.87 218.02Q205.53 218.02 204.75 218.86Q203.97 219.70 203.97 221.24" fill="white" fill-opacity="0.7"/>
<path d="M221.20 229.88Q218.87 229.88 217.44 228.48Q216.02 227.07 216.02 224.60L216.02 221.48Q216.02 219.01 217.44 217.60Q218.87 216.20 221.20 216.20Q222.76 216.20 223.92 216.82Q225.09 217.45 225.74 218.58Q226.38 219.70 226.38 221.24L226.38 223.59L218.13 223.59L218.13 224.84Q218.13 226.30 218.97 227.16Q219.81 228.01 221.20 228.01Q222.40 228.01 223.18 227.54Q223.96 227.07 224.13 226.28L226.29 226.28Q226.07 227.94 224.68 228.91Q223.29 229.88 221.20 229.88M218.13 221.24L218.13 221.91L224.27 221.91L224.27 221.24Q224.27 219.68 223.47 218.83Q222.66 217.98 221.20 217.98Q219.74 217.98 218.93 218.83Q218.13 219.68 218.13 221.24" fill="white" fill-opacity="0.7"/>
<path d="MNaN 229.83Q247.62 229.83 246.22 228.44Q244.82 227.05 244.82 224.55L244.82 221.53Q244.82 219.01 246.21 217.63Q247.60 216.25 NaN 216.25Q252.40 216.25 253.79 217.63Q255.18 219.01 255.18 221.53L255.18 224.55Q255.18 227.05 253.78 228.44Q252.38 229.83 NaN 229.83MNaN 227.91Q251.42 227.91 252.22 227.12Q253.02 226.33 253.02 224.79L253.02 221.29Q253.02 219.75 252.22 218.96Q251.42 218.17 NaN 218.17Q248.61 218.17 247.79 218.96Q246.98 219.75 246.98 221.29L246.98 224.79Q246.98 226.33 247.79 227.12Q248.61 227.91 NaN 227.91" fill="white" fill-opacity="0.7"/>
<path d="M261.57 229.64L259.41 229.64L259.41 216.44L261.57 216.44L261.57 218.96L261.59 218.96Q261.76 217.64 262.67 216.92Q263.58 216.20 265.10 216.20Q267.09 216.20 268.26 217.42Q269.44 218.65 269.44 220.76L269.44 229.64L267.28 229.64L267.28 221.14Q267.28 219.63 266.52 218.83Q265.77 218.02 264.47 218.02Q263.13 218.02 262.35 218.86Q261.57 219.70 261.57 221.24" fill="white" fill-opacity="0.7"/>
<path d="M279.57 229.88Q278.08 229.88 277.12 229.15Q276.16 228.42 275.99 227.12L275.97 227.12L275.97 229.64L273.81 229.64L273.81 212.12L275.97 212.12L275.97 215.96L275.92 218.96L275.94 218.96Q276.14 217.69 277.11 216.94Q278.08 216.20 279.57 216.20Q281.56 216.20 282.74 217.52Q283.91 218.84 283.91 221.12L283.91 224.98Q283.91 227.24 282.74 228.56Q281.56 229.88 279.57 229.88M278.85 228.01Q280.22 228.01 280.98 227.29Q281.75 226.57 281.75 224.96L281.75 221.12Q281.75 219.49 280.98 218.78Q280.22 218.07 278.85 218.07Q277.53 218.07 276.75 218.91Q275.97 219.75 275.97 221.24L275.97 224.84Q275.97 226.33 276.75 227.17Q277.53 228.01 278.85 228.01" fill="white" fill-opacity="0.7"/>
<path d="M293.20 229.83Q290.82 229.83 289.42 228.44Q288.02 227.05 288.02 224.55L288.02 221.53Q288.02 219.01 289.41 217.63Q290.80 216.25 293.20 216.25Q295.60 216.25 296.99 217.63Q298.38 219.01 298.38 221.53L298.38 224.55Q298.38 227.05 296.98 228.44Q295.58 229.83 293.20 229.83M293.20 227.91Q294.62 227.91 295.42 227.12Q296.22 226.33 296.22 224.79L296.22 221.29Q296.22 219.75 295.42 218.96Q294.62 218.17 293.20 218.17Q291.81 218.17 290.99 218.96Q290.18 219.75 290.18 221.29L290.18 224.79Q290.18 226.33 290.99 227.12Q291.81 227.91 293.20 227.91" fill="white" fill-opacity="0.7"/>
<path d="M306.45 229.88Q304.41 229.88 303.21 228.74Q302.01 227.60 302.01 225.75Q302.01 224.53 302.56 223.62Q303.11 222.70 304.10 222.19Q305.08 221.67 306.35 221.67L310.43 221.67L310.43 220.64Q310.43 218.07 307.62 218.07Q306.38 218.07 305.61 218.53Q304.84 218.98 304.79 219.80L302.63 219.80Q302.75 218.24 304.08 217.22Q305.42 216.20 307.62 216.20Q310.02 216.20 311.31 217.35Q312.59 218.50 312.59 220.57L312.59 229.64L310.46 229.64L310.46 227.24L310.41 227.24Q310.22 228.46 309.18 229.17Q308.15 229.88 306.45 229.88M306.98 228.06Q308.56 228.06 309.50 227.29Q310.43 226.52 310.43 225.20L310.43 223.35L306.59 223.35Q305.54 223.35 304.88 223.99Q304.22 224.62 304.22 225.68Q304.22 226.78 304.95 227.42Q305.68 228.06 306.98 228.06" fill="white" fill-opacity="0.7"/>
<path d="M319.65 229.64L317.49 229.64L317.49 216.44L319.65 216.44L319.65 218.96L319.70 218.96Q319.86 217.69 320.78 216.94Q321.69 216.20 323.22 216.20Q325.29 216.20 326.40 217.44Q327.52 218.67 327.52 220.95L327.52 222.08L325.36 222.08L325.36 220.95Q325.36 218.07 322.55 218.07Q321.14 218.07 320.39 218.89Q319.65 219.70 319.65 221.24" fill="white" fill-opacity="0.7"/>
<path d="M335.63 229.88Q333.66 229.88 332.48 228.56Q331.29 227.24 331.29 224.98L331.29 221.12Q331.29 218.84 332.46 217.52Q333.64 216.20 335.63 216.20Q337.12 216.20 338.09 216.94Q339.06 217.69 339.26 218.96L339.28 218.96L339.23 215.96L339.23 212.12L341.39 212.12L341.39 229.64L339.23 229.64L339.23 227.12L339.21 227.12Q339.04 228.42 338.08 229.15Q337.12 229.88 335.63 229.88M336.35 228.01Q337.70 228.01 338.46 227.17Q339.23 226.33 339.23 224.84L339.23 221.24Q339.23 219.75 338.46 218.91Q337.70 218.07 336.35 218.07Q334.98 218.07 334.22 218.78Q333.45 219.49 333.45 221.12L333.45 224.96Q333.45 226.57 334.22 227.29Q334.98 228.01 336.35 228.01" fill="white" fill-opacity="0.7"/>
<path d="M356.92 229.64L345.64 229.64L345.64 227.67L350.32 227.67L350.32 218.41L346.12 218.41L346.12 216.44L352.48 216.44L352.48 227.67L356.92 227.67L356.92 229.64M351.16 214.06Q350.37 214.06 349.91 213.66Q349.46 213.25 349.46 212.55Q349.46 211.83 349.91 211.41Q350.37 210.99 351.16 210.99Q351.95 210.99 352.41 211.41Q352.86 211.83 352.86 212.55Q352.86 213.25 352.41 213.66Q351.95 214.06 351.16 214.06" fill="white" fill-opacity="0.7"/>
<path d="M362.37 229.64L360.21 229.64L360.21 216.44L362.37 216.44L362.37 218.96L362.39 218.96Q362.56 217.64 363.47 216.92Q364.38 216.20 365.90 216.20Q367.89 216.20 369.06 217.42Q370.24 218.65 370.24 220.76L370.24 229.64L368.08 229.64L368.08 221.14Q368.08 219.63 367.32 218.83Q366.57 218.02 365.27 218.02Q363.93 218.02 363.15 218.86Q362.37 219.70 362.37 221.24" fill="white" fill-opacity="0.7"/>
<path d="M379.96 233.96L376.26 233.96L376.26 231.99L379.98 231.99Q381.11 231.99 381.76 231.36Q382.41 230.72 382.41 229.64L382.41 228.44L382.46 226.28L382.38 226.28Q382.19 227.46 381.26 228.09Q380.32 228.73 378.90 228.73Q376.86 228.73 375.69 227.43Q374.51 226.14 374.51 223.88L374.51 221.10Q374.51 218.84 375.69 217.52Q376.86 216.20 378.90 216.20Q380.32 216.20 381.26 216.87Q382.19 217.54 382.38 218.72L382.43 218.72L382.43 216.44L384.57 216.44L384.57 229.64Q384.57 231.63 383.33 232.80Q382.10 233.96 379.96 233.96M379.55 226.93Q380.90 226.93 381.66 226.09Q382.43 225.25 382.43 223.76L382.43 221.24Q382.43 219.75 381.66 218.91Q380.90 218.07 379.55 218.07Q378.18 218.07 377.43 218.86Q376.67 219.66 376.67 221L376.67 224Q376.67 225.34 377.43 226.14Q378.18 226.93 379.55 226.93" fill="white" fill-opacity="0.7"/>
<path d="M408.40 229.88Q406.07 229.88 404.64 228.48Q403.22 227.07 403.22 224.60L403.22 221.48Q403.22 219.01 404.64 217.60Q406.07 216.20 408.40 216.20Q409.96 216.20 411.12 216.82Q412.29 217.45 412.94 218.58Q413.58 219.70 413.58 221.24L413.58 223.59L405.33 223.59L405.33 224.84Q405.33 226.30 406.17 227.16Q407.01 228.01 408.40 228.01Q409.60 228.01 410.38 227.54Q411.16 227.07 411.33 226.28L413.49 226.28Q413.27 227.94 411.88 228.91Q410.49 229.88 408.40 229.88M405.33 221.24L405.33 221.91L411.47 221.91L411.47 221.24Q411.47 219.68 410.67 218.83Q409.86 217.98 408.40 217.98Q406.94 217.98 406.13 218.83Q405.33 219.68 405.33 221.24" fill="white" fill-opacity="0.7"/>
<path d="M419.34 229.64L416.80 229.64L421.48 222.85L417.09 216.44L419.63 216.44L422.25 220.52Q422.42 220.78 422.57 221.10Q422.73 221.41 422.82 221.60Q422.90 221.41 423.05 221.10Q423.21 220.78 423.38 220.52L425.99 216.44L428.54 216.44L424.14 222.87L428.80 229.64L426.26 229.64L423.42 225.32Q423.26 225.06 423.10 224.71Q422.94 224.36 422.82 224.14Q422.73 224.36 422.55 224.71Q422.37 225.06 422.18 225.32" fill="white" fill-opacity="0.7"/>
<path d="M434.37 233.96L432.21 233.96L432.21 216.44L434.37 216.44L434.37 218.96L434.39 218.96Q434.56 217.66 435.52 216.93Q436.48 216.20 437.97 216.20Q439.96 216.20 441.14 217.51Q442.31 218.82 442.31 221.10L442.31 224.96Q442.31 227.24 441.14 228.56Q439.96 229.88 437.97 229.88Q436.48 229.88 435.52 229.14Q434.56 228.39 434.39 227.12L434.32 227.12L434.37 230.12L434.37 233.96M437.25 228.01Q438.62 228.01 439.38 227.29Q440.15 226.57 440.15 224.96L440.15 221.12Q440.15 219.49 439.38 218.78Q438.62 218.07 437.25 218.07Q435.93 218.07 435.15 218.91Q434.37 219.75 434.37 221.24L434.37 224.84Q434.37 226.33 435.15 227.17Q435.93 228.01 437.25 228.01" fill="white" fill-opacity="0.7"/>
<path d="M451.60 229.88Q449.27 229.88 447.84 228.48Q446.42 227.07 446.42 224.60L446.42 221.48Q446.42 219.01 447.84 217.60Q449.27 216.20 451.60 216.20Q453.16 216.20 454.32 216.82Q455.49 217.45 456.14 218.58Q456.78 219.70 456.78 221.24L456.78 223.59L448.53 223.59L448.53 224.84Q448.53 226.30 449.37 227.16Q450.21 228.01 451.60 228.01Q452.80 228.01 453.58 227.54Q454.36 227.07 454.53 226.28L456.69 226.28Q456.47 227.94 455.08 228.91Q453.69 229.88 451.60 229.88M448.53 221.24L448.53 221.91L454.67 221.91L454.67 221.24Q454.67 219.68 453.87 218.83Q453.06 217.98 451.60 217.98Q450.14 217.98 449.33 218.83Q448.53 219.68 448.53 221.24" fill="white" fill-opacity="0.7"/>
<path d="M463.65 229.64L461.49 229.64L461.49 216.44L463.65 216.44L463.65 218.96L463.70 218.96Q463.86 217.69 464.78 216.94Q465.69 216.20 467.22 216.20Q469.29 216.20 470.40 217.44Q471.52 218.67 471.52 220.95L471.52 222.08L469.36 222.08L469.36 220.95Q469.36 218.07 466.55 218.07Q465.14 218.07 464.39 218.89Q463.65 219.70 463.65 221.24" fill="white" fill-opacity="0.7"/>
<path d="M486.52 229.64L475.24 229.64L475.24 227.67L479.92 227.67L479.92 218.41L475.72 218.41L475.72 216.44L482.08 216.44L482.08 227.67L486.52 227.67L486.52 229.64M480.76 214.06Q479.97 214.06 479.51 213.66Q479.06 213.25 479.06 212.55Q479.06 211.83 479.51 211.41Q479.97 210.99 480.76 210.99Q481.55 210.99 482.01 211.41Q482.46 211.83 482.46 212.55Q482.46 213.25 482.01 213.66Q481.55 214.06 480.76 214.06" fill="white" fill-opacity="0.7"/>
<path d="M494.80 229.88Q492.47 229.88 491.04 228.48Q489.62 227.07 489.62 224.60L489.62 221.48Q489.62 219.01 491.04 217.60Q492.47 216.20 494.80 216.20Q496.36 216.20 497.52 216.82Q498.69 217.45 499.34 218.58Q499.98 219.70 499.98 221.24L499.98 223.59L491.73 223.59L491.73 224.84Q491.73 226.30 492.57 227.16Q493.41 228.01 494.80 228.01Q496 228.01 496.78 227.54Q497.56 227.07 497.73 226.28L499.89 226.28Q499.67 227.94 498.28 228.91Q496.89 229.88 494.80 229.88M491.73 221.24L491.73 221.91L497.87 221.91L497.87 221.24Q497.87 219.68 497.07 218.83Q496.26 217.98 494.80 217.98Q493.34 217.98 492.53 218.83Q491.73 219.68 491.73 221.24" fill="white" fill-opacity="0.7"/>
<path d="M506.37 229.64L504.21 229.64L504.21 216.44L506.37 216.44L506.37 218.96L506.39 218.96Q506.56 217.64 507.47 216.92Q508.38 216.20 509.90 216.20Q511.89 216.20 513.06 217.42Q514.24 218.65 514.24 220.76L514.24 229.64L512.08 229.64L512.08 221.14Q512.08 219.63 511.32 218.83Q510.57 218.02 509.27 218.02Q507.93 218.02 507.15 218.86Q506.37 219.70 506.37 221.24" fill="white" fill-opacity="0.7"/>
<path d="M523.79 229.88Q521.39 229.88 519.95 228.54Q518.51 227.19 518.51 224.84L518.51 221.24Q518.51 218.89 519.95 217.54Q521.39 216.20 523.79 216.20Q526.07 216.20 527.48 217.42Q528.88 218.65 528.95 220.76L526.79 220.76Q526.72 219.49 525.93 218.80Q525.14 218.12 523.79 218.12Q522.38 218.12 521.52 218.92Q520.67 219.73 520.67 221.22L520.67 224.84Q520.67 226.33 521.52 227.14Q522.38 227.96 523.79 227.96Q525.14 227.96 525.93 227.26Q526.72 226.57 526.79 225.32L528.95 225.32Q528.88 227.43 527.48 228.66Q526.07 229.88 523.79 229.88" fill="white" fill-opacity="0.7"/>
<path d="M538 229.88Q535.67 229.88 534.24 228.48Q532.82 227.07 532.82 224.60L532.82 221.48Q532.82 219.01 534.24 217.60Q535.67 216.20 538 216.20Q539.56 216.20 540.72 216.82Q541.89 217.45 542.54 218.58Q543.18 219.70 543.18 221.24L543.18 223.59L534.93 223.59L534.93 224.84Q534.93 226.30 535.77 227.16Q536.61 228.01 538 228.01Q539.20 228.01 539.98 227.54Q540.76 227.07 540.93 226.28L543.09 226.28Q542.87 227.94 541.48 228.91Q540.09 229.88 538 229.88M534.93 221.24L534.93 221.91L541.07 221.91L541.07 221.24Q541.07 219.68 540.27 218.83Q539.46 217.98 538 217.98Q536.54 217.98 535.73 218.83Q534.93 219.68 534.93 221.24" fill="white" fill-opacity="0.7"/>
<path d="M566.92 229.64L564.76 229.64L564.76 220.21L560.92 220.21L560.92 218.24L564.76 218.24L564.76 215.48Q564.76 213.92 565.74 213.02Q566.73 212.12 568.46 212.12L572.32 212.12L572.32 214.09L568.46 214.09Q566.92 214.09 566.92 215.48L566.92 218.24L572.32 218.24L572.32 220.21L566.92 220.21" fill="white" fill-opacity="0.7"/>
<path d="M581.20 229.83Q578.82 229.83 577.42 228.44Q576.02 227.05 576.02 224.55L576.02 221.53Q576.02 219.01 577.41 217.63Q578.80 216.25 581.20 216.25Q583.60 216.25 584.99 217.63Q586.38 219.01 586.38 221.53L586.38 224.55Q586.38 227.05 584.98 228.44Q583.58 229.83 581.20 229.83M581.20 227.91Q582.62 227.91 583.42 227.12Q584.22 226.33 584.22 224.79L584.22 221.29Q584.22 219.75 583.42 218.96Q582.62 218.17 581.20 218.17Q579.81 218.17 578.99 218.96Q578.18 219.75 578.18 221.29L578.18 224.79Q578.18 226.33 578.99 227.12Q579.81 227.91 581.20 227.91" fill="white" fill-opacity="0.7"/>
<path d="M593.25 229.64L591.09 229.64L591.09 216.44L593.25 216.44L593.25 218.96L593.30 218.96Q593.46 217.69 594.38 216.94Q595.29 216.20 596.82 216.20Q598.89 216.20 600 217.44Q601.12 218.67 601.12 220.95L601.12 222.08L598.96 222.08L598.96 220.95Q598.96 218.07 596.15 218.07Q594.74 218.07 593.99 218.89Q593.25 219.70 593.25 221.24" fill="white" fill-opacity="0.7"/>
<path d="M623.63 229.88Q621.66 229.88 620.48 228.56Q619.29 227.24 619.29 224.98L619.29 221.12Q619.29 218.84 620.46 217.52Q621.64 216.20 623.63 216.20Q625.12 216.20 626.09 216.94Q627.06 217.69 627.26 218.96L627.28 218.96L627.23 215.96L627.23 212.12L629.39 212.12L629.39 229.64L627.23 229.64L627.23 227.12L627.21 227.12Q627.04 228.42 626.08 229.15Q625.12 229.88 623.63 229.88M624.35 228.01Q625.70 228.01 626.46 227.17Q627.23 226.33 627.23 224.84L627.23 221.24Q627.23 219.75 626.46 218.91Q625.70 218.07 624.35 218.07Q622.98 218.07 622.22 218.78Q621.45 219.49 621.45 221.12L621.45 224.96Q621.45 226.57 622.22 227.29Q622.98 228.01 624.35 228.01" fill="white" fill-opacity="0.7"/>
<path d="M638.80 229.88Q636.47 229.88 635.04 228.48Q633.62 227.07 633.62 224.60L633.62 221.48Q633.62 219.01 635.04 217.60Q636.47 216.20 638.80 216.20Q640.36 216.20 641.52 216.82Q642.69 217.45 643.34 218.58Q643.98 219.70 643.98 221.24L643.98 223.59L635.73 223.59L635.73 224.84Q635.73 226.30 636.57 227.16Q637.41 228.01 638.80 228.01Q640 228.01 640.78 227.54Q641.56 227.07 641.73 226.28L643.89 226.28Q643.67 227.94 642.28 228.91Q640.89 229.88 638.80 229.88M635.73 221.24L635.73 221.91L641.87 221.91L641.87 221.24Q641.87 219.68 641.07 218.83Q640.26 217.98 638.80 217.98Q637.34 217.98 636.53 218.83Q635.73 219.68 635.73 221.24" fill="white" fill-opacity="0.7"/>
<path d="M654.62 229.64L651.78 229.64L647.30 216.44L649.62 216.44L652.50 225.32Q652.77 226.11 652.96 226.84Q653.15 227.58 653.25 227.98Q653.37 227.58 653.54 226.84Q653.70 226.11 653.94 225.32L656.82 216.44L659.10 216.44" fill="white" fill-opacity="0.7"/>
<path d="M667.60 229.88Q665.27 229.88 663.84 228.48Q662.42 227.07 662.42 224.60L662.42 221.48Q662.42 219.01 663.84 217.60Q665.27 216.20 667.60 216.20Q669.16 216.20 670.32 216.82Q671.49 217.45 672.14 218.58Q672.78 219.70 672.78 221.24L672.78 223.59L664.53 223.59L664.53 224.84Q664.53 226.30 665.37 227.16Q666.21 228.01 667.60 228.01Q668.80 228.01 669.58 227.54Q670.36 227.07 670.53 226.28L672.69 226.28Q672.47 227.94 671.08 228.91Q669.69 229.88 667.60 229.88M664.53 221.24L664.53 221.91L670.67 221.91L670.67 221.24Q670.67 219.68 669.87 218.83Q669.06 217.98 667.60 217.98Q666.14 217.98 665.33 218.83Q664.53 219.68 664.53 221.24" fill="white" fill-opacity="0.7"/>
<path d="M688 229.64L683.92 229.64Q682.17 229.64 681.12 228.62Q680.08 227.60 680.08 225.92L680.08 214.09L675.52 214.09L675.52 212.12L682.24 212.12L682.24 225.92Q682.24 226.74 682.70 227.20Q683.15 227.67 683.92 227.67L688 227.67" fill="white" fill-opacity="0.7"/>
<path d="M696.40 229.83Q694.02 229.83 692.62 228.44Q691.22 227.05 691.22 224.55L691.22 221.53Q691.22 219.01 692.61 217.63Q694 216.25 696.40 216.25Q698.80 216.25 700.19 217.63Q701.58 219.01 701.58 221.53L701.58 224.55Q701.58 227.05 700.18 228.44Q698.78 229.83 696.40 229.83M696.40 227.91Q697.82 227.91 698.62 227.12Q699.42 226.33 699.42 224.79L699.42 221.29Q699.42 219.75 698.62 218.96Q697.82 218.17 696.40 218.17Q695.01 218.17 694.19 218.96Q693.38 219.75 693.38 221.29L693.38 224.79Q693.38 226.33 694.19 227.12Q695.01 227.91 696.40 227.91" fill="white" fill-opacity="0.7"/>
<path d="M707.97 233.96L705.81 233.96L705.81 216.44L707.97 216.44L707.97 218.96L707.99 218.96Q708.16 217.66 709.12 216.93Q710.08 216.20 711.57 216.20Q713.56 216.20 714.74 217.51Q715.91 218.82 715.91 221.10L715.91 224.96Q715.91 227.24 714.74 228.56Q713.56 229.88 711.57 229.88Q710.08 229.88 709.12 229.14Q708.16 228.39 707.99 227.12L707.92 227.12L707.97 230.12L707.97 233.96M710.85 228.01Q712.22 228.01 712.98 227.29Q713.75 226.57 713.75 224.96L713.75 221.12Q713.75 219.49 712.98 218.78Q712.22 218.07 710.85 218.07Q709.53 218.07 708.75 218.91Q707.97 219.75 707.97 221.24L707.97 224.84Q707.97 226.33 708.75 227.17Q709.53 228.01 710.85 228.01" fill="white" fill-opacity="0.7"/>
<path d="M725.20 229.88Q722.87 229.88 721.44 228.48Q720.02 227.07 720.02 224.60L720.02 221.48Q720.02 219.01 721.44 217.60Q722.87 216.20 725.20 216.20Q726.76 216.20 727.92 216.82Q729.09 217.45 729.74 218.58Q730.38 219.70 730.38 221.24L730.38 223.59L722.13 223.59L722.13 224.84Q722.13 226.30 722.97 227.16Q723.81 228.01 725.20 228.01Q726.40 228.01 727.18 227.54Q727.96 227.07 728.13 226.28L730.29 226.28Q730.07 227.94 728.68 228.91Q727.29 229.88 725.20 229.88M722.13 221.24L722.13 221.91L728.27 221.91L728.27 221.24Q728.27 219.68 727.47 218.83Q726.66 217.98 725.20 217.98Q723.74 217.98 722.93 218.83Q722.13 219.68 722.13 221.24" fill="white" fill-opacity="0.7"/>
<path d="M737.25 229.64L735.09 229.64L735.09 216.44L737.25 216.44L737.25 218.96L737.30 218.96Q737.46 217.69 738.38 216.94Q739.29 216.20 740.82 216.20Q742.89 216.20 744 217.44Q745.12 218.67 745.12 220.95L745.12 222.08L742.96 222.08L742.96 220.95Q742.96 218.07 740.15 218.07Q738.74 218.07 737.99 218.89Q737.25 219.70 737.25 221.24" fill="white" fill-opacity="0.7"/>
<path d="M754.53 229.83L753.47 229.83Q751.26 229.83 750.05 228.84Q748.84 227.84 748.84 226.02L751 226.02Q751 226.93 751.65 227.44Q752.30 227.96 753.47 227.96L754.53 227.96Q755.73 227.96 756.39 227.43Q757.05 226.90 757.05 225.94Q757.05 224.24 755.49 224.02L751.84 223.50Q750.50 223.30 749.75 222.38Q749.01 221.46 749.01 219.94Q749.01 218.22 750.20 217.23Q751.38 216.25 753.47 216.25L754.53 216.25Q756.45 216.25 757.66 217.20Q758.87 218.14 758.97 219.68L756.78 219.68Q756.74 218.98 756.12 218.53Q755.51 218.07 754.53 218.07L753.47 218.07Q752.37 218.07 751.74 218.58Q751.12 219.08 751.12 219.94Q751.12 221.34 752.39 221.53L755.80 222.01Q759.16 222.49 759.16 225.94Q759.16 227.79 757.95 228.81Q756.74 229.83 754.53 229.83" fill="white" fill-opacity="0.7"/>
<path d="M781.65 229.88Q779.61 229.88 778.41 228.74Q777.21 227.60 777.21 225.75Q777.21 224.53 777.76 223.62Q778.31 222.70 779.30 222.19Q780.28 221.67 781.55 221.67L785.63 221.67L785.63 220.64Q785.63 218.07 782.82 218.07Q781.58 218.07 780.81 218.53Q780.04 218.98 779.99 219.80L777.83 219.80Q777.95 218.24 779.28 217.22Q780.62 216.20 782.82 216.20Q785.22 216.20 786.51 217.35Q787.79 218.50 787.79 220.57L787.79 229.64L785.66 229.64L785.66 227.24L785.61 227.24Q785.42 228.46 784.38 229.17Q783.35 229.88 781.65 229.88M782.18 228.06Q783.76 228.06 784.70 227.29Q785.63 226.52 785.63 225.20L785.63 223.35L781.79 223.35Q780.74 223.35 780.08 223.99Q779.42 224.62 779.42 225.68Q779.42 226.78 780.15 227.42Q780.88 228.06 782.18 228.06" fill="white" fill-opacity="0.7"/>
<path d="M802.36 229.64L798.52 229.64Q796.89 229.64 795.90 228.69Q794.92 227.74 794.92 226.16L794.92 218.41L791.13 218.41L791.13 216.44L794.92 216.44L794.92 212.72L797.08 212.72L797.08 216.44L802.48 216.44L802.48 218.41L797.08 218.41L797.08 226.16Q797.08 226.83 797.48 227.25Q797.87 227.67 798.52 227.67L802.36 227.67" fill="white" fill-opacity="0.7"/>
<path d="M827.46 229.64L824.51 229.64L820 212.12L822.21 212.12L825.21 224.05Q825.52 225.30 825.72 226.35Q825.93 227.41 826.02 227.96Q826.12 227.41 826.35 226.34Q826.58 225.27 826.89 224.02L829.77 212.12L832 212.12" fill="white" fill-opacity="0.7"/>
<path d="M841.48 229.64L839.32 229.64L839.32 214.09L834.52 214.09L834.52 212.12L846.28 212.12L846.28 214.09L841.48 214.09" fill="white" fill-opacity="0.7"/>
<path d="M860.08 229.64L850 229.64L850 212.12L860.08 212.12L860.08 214.09L852.14 214.09L852.14 219.51L859.24 219.51L859.24 221.43L852.14 221.43L852.14 227.67L860.08 227.67" fill="white" fill-opacity="0.7"/>
<path d="M865.36 229.64L862.96 229.64L868 220.76L863.22 212.12L865.72 212.12L868.43 217.30Q868.65 217.71 868.88 218.18Q869.10 218.65 869.25 218.91Q869.37 218.65 869.60 218.18Q869.82 217.71 870.04 217.30L872.80 212.12L875.18 212.12L870.40 220.62L875.44 229.64L872.97 229.64L869.97 224.07Q869.75 223.66 869.52 223.20Q869.30 222.73 869.18 222.44Q869.06 222.73 868.83 223.18Q868.60 223.64 868.38 224.05" fill="white" fill-opacity="0.7"/>
<path d="M883.60 229.88Q882.71 229.88 882.17 229.35Q881.63 228.82 881.63 227.98Q881.63 227.10 882.17 226.54Q882.71 225.99 883.60 225.99Q884.49 225.99 885.03 226.54Q885.57 227.10 885.57 227.98Q885.57 228.82 885.03 229.35Q884.49 229.88 883.60 229.88" fill="white" fill-opacity="0.7"/>
<path d="M917.08 229.64L907.72 229.64L907.72 227.67L911.30 227.67L911.30 214.09L907.72 214.09L907.72 212.12L917.08 212.12L917.08 214.09L913.50 214.09L913.50 227.67L917.08 227.67" fill="white" fill-opacity="0.7"/>
<path d="M926.80 229.88Q925.91 229.88 925.37 229.35Q924.83 228.82 924.83 227.98Q924.83 227.10 925.37 226.54Q925.91 225.99 926.80 225.99Q927.69 225.99 928.23 226.54Q928.77 227.10 928.77 227.98Q928.77 228.82 928.23 229.35Q927.69 229.88 926.80 229.88" fill="white" fill-opacity="0.7"/>
<path d="M941.20 229.88Q940.31 229.88 939.77 229.35Q939.23 228.82 939.23 227.98Q939.23 227.10 939.77 226.54Q940.31 225.99 941.20 225.99Q942.09 225.99 942.63 226.54Q943.17 227.10 943.17 227.98Q943.17 228.82 942.63 229.35Q942.09 229.88 941.20 229.88" fill="white" fill-opacity="0.7"/>
<path d="M97.14 136.06L84.37 136.06L66.42 65.98L76.21 65.98L87.82 113.21Q88.98 117.72 89.79 121.90Q90.61 126.08 90.99 128.28Q91.28 126.08 92.19 121.85Q93.10 117.63 94.16 113.12L105.39 65.98L115.18 65.98L97.14 136.06M153.20 136.06L143.70 136.06L143.70 74.62L124.69 74.62L124.69 65.98L172.11 65.98L172.11 74.62L153.20 74.62L153.20 136.06M227.31 136.06L186.51 136.06L186.51 65.98L227.31 65.98L227.31 74.52L195.92 74.52L195.92 95.36L223.95 95.36L223.95 103.61L195.92 103.61L195.92 127.52L227.31 127.52L227.31 136.06M248.82 136.06L238.35 136.06L258.32 100.44L239.41 65.98L250.26 65.98L260.62 85.95Q261.49 87.68 262.40 89.50Q263.31 91.32 263.79 92.28Q264.27 91.32 265.14 89.50Q266 87.68 266.86 85.95L277.33 65.98L287.79 65.98L268.88 99.96L288.85 136.06L278.10 136.06L266.58 114.56Q265.71 112.83 264.85 110.96Q263.98 109.08 263.50 107.93Q263.02 109.08 262.16 110.96Q261.30 112.83 260.34 114.46L248.82 136.06M379.18 137.02Q369.49 137.02 363.78 131.60Q358.06 126.17 358.06 116.67L358.06 85.28Q358.06 75.87 363.78 70.44Q369.49 65.02 379.18 65.02Q388.78 65.02 394.50 70.49Q400.21 75.96 400.21 85.28L390.70 85.28Q390.70 79.61 387.63 76.54Q384.56 73.47 379.18 73.47Q373.71 73.47 370.64 76.54Q367.57 79.61 367.57 85.28L367.57 116.67Q367.57 122.43 370.64 125.50Q373.71 128.57 379.18 128.57Q384.56 128.57 387.63 125.50Q390.70 122.43 390.70 116.67L390.70 107.55L377.07 107.55L377.07 99.10L400.21 99.10L400.21 116.67Q400.21 126.08 394.50 131.55Q388.78 137.02 379.18 137.02M455.50 136.06L417.30 136.06L417.30 127.42L431.60 127.42L431.60 74.62L417.30 74.62L417.30 65.98L455.50 65.98L455.50 74.62L441.20 74.62L441.20 127.42L455.50 127.42L455.50 136.06M483.44 136.06L473.94 136.06L473.94 65.98L515.79 65.98L515.79 74.72L483.25 74.72L483.25 96.80L513.30 96.80L513.30 105.44L483.44 105.44L483.44 136.06M556.40 136.06L546.90 136.06L546.90 74.62L527.89 74.62L527.89 65.98L575.31 65.98L575.31 74.62L556.40 74.62L556.40 136.06M609.97 137.02Q600.27 137.02 594.56 131.60Q588.85 126.17 588.85 116.67L588.85 85.28Q588.85 75.87 594.56 70.44Q600.27 65.02 609.97 65.02Q619.57 65.02 625.28 70.49Q630.99 75.96 630.99 85.28L621.49 85.28Q621.49 79.61 618.42 76.54Q615.34 73.47 609.97 73.47Q604.50 73.47 601.42 76.54Q598.35 79.61 598.35 85.28L598.35 116.67Q598.35 122.43 601.42 125.50Q604.50 128.57 609.97 128.57Q615.34 128.57 618.42 125.50Q621.49 122.43 621.49 116.67L630.99 116.67Q630.99 126.08 625.28 131.55Q619.57 137.02 609.97 137.02M652.11 136.06L642.42 136.06L660.56 65.98L673.14 65.98L691.18 136.06L681.49 136.06L677.07 117.82L656.53 117.82L652.11 136.06M663.54 88.92L658.45 109.95L675.15 109.95L670.16 89.02Q668.72 83.26 667.86 79.23Q666.99 75.20 666.80 73.76Q666.61 75.20 665.74 79.23Q664.88 83.26 663.54 88.92M713.55 136.06L704.14 136.06L704.14 65.98L725.84 65.98Q732.27 65.98 737.07 68.52Q741.87 71.07 744.56 75.63Q747.25 80.19 747.25 86.33Q747.25 93.44 743.65 98.52Q740.05 103.61 734.10 105.72L748.21 136.06L737.74 136.06L724.40 106.78L713.55 106.78L713.55 136.06M713.55 74.43L713.55 98.33L725.84 98.33Q731.22 98.33 734.34 95.07Q737.46 91.80 737.46 86.43Q737.46 80.96 734.29 77.69Q731.12 74.43 725.84 74.43L713.55 74.43M780.46 136.06L761.65 136.06L761.65 65.98L780.46 65.98Q787.28 65.98 792.32 68.62Q797.36 71.26 800.14 76.01Q802.93 80.76 802.93 87.20L802.93 114.75Q802.93 121.18 800.14 125.98Q797.36 130.78 792.32 133.42Q787.28 136.06 780.46 136.06M771.15 74.43L771.15 127.61L780.46 127.61Q786.51 127.61 789.97 124.16Q793.42 120.70 793.42 114.75L793.42 87.20Q793.42 81.24 789.97 77.84Q786.51 74.43 780.46 74.43L771.15 74.43M886.45 136.06L876.94 136.06L876.94 65.98L886.45 65.98L886.45 95.55L907.95 95.55L907.95 65.98L917.46 65.98L917.46 136.06L907.95 136.06L907.95 104.19L886.45 104.19L886.45 136.06M954.80 137.02Q944.91 137.02 939.58 131.55Q934.26 126.08 934.26 116.67L934.26 65.98L943.76 65.98L943.76 116.67Q943.76 122.24 946.50 125.40Q949.23 128.57 954.80 128.57Q960.27 128.57 963.10 125.40Q965.94 122.24 965.94 116.67L965.94 65.98L975.44 65.98L975.44 116.67Q975.44 126.17 970.11 131.60Q964.78 137.02 954.80 137.02M1013.74 136.06L992.14 136.06L992.14 65.98L1012.40 65.98Q1022.10 65.98 1027.71 70.83Q1033.33 75.68 1033.33 84.12Q1033.33 89.60 1029.92 93.87Q1026.51 98.14 1021.14 99.10L1021.14 99.39Q1025.17 99.87 1028.29 102.27Q1031.41 104.67 1033.18 108.36Q1034.96 112.06 1034.96 116.48Q1034.96 125.50 1029.25 130.78Q1023.54 136.06 1013.74 136.06M1001.46 74.33L1001.46 95.55L1012.30 95.55Q1017.68 95.55 1020.75 92.72Q1023.82 89.88 1023.82 84.99Q1023.82 80 1020.75 77.16Q1017.68 74.33 1012.40 74.33L1001.46 74.33M1001.46 103.61L1001.46 127.71L1012.88 127.71Q1018.74 127.71 1022.10 124.59Q1025.46 121.47 1025.46 116.09Q1025.46 110.52 1022.10 107.07Q1018.74 103.61 1012.88 103.61L1001.46 103.61M1112.91 136.06L1103.22 136.06L1121.36 65.98L1133.94 65.98L1151.98 136.06L1142.29 136.06L1137.87 117.82L1117.33 117.82L1112.91 136.06M1124.34 88.92L1119.25 109.95L1135.95 109.95L1130.96 89.02Q1129.52 83.26 1128.66 79.23Q1127.79 75.20 1127.60 73.76Q1127.41 75.20 1126.54 79.23Q1125.68 83.26 1124.34 88.92M1174.35 136.06L1164.85 136.06L1164.85 65.98L1187.60 65.98Q1194.32 65.98 1199.22 68.57Q1204.11 71.16 1206.80 75.82Q1209.49 80.48 1209.49 86.91Q1209.49 93.24 1206.80 97.90Q1204.11 102.56 1199.17 105.15Q1194.22 107.74 1187.60 107.74L1174.35 107.74L1174.35 136.06M1174.35 74.43L1174.35 99.29L1187.60 99.29Q1193.17 99.29 1196.43 95.88Q1199.70 92.48 1199.70 86.91Q1199.70 81.24 1196.43 77.84Q1193.17 74.43 1187.60 74.43L1174.35 74.43M1261.90 136.06L1223.70 136.06L1223.70 127.42L1238 127.42L1238 74.62L1223.70 74.62L1223.70 65.98L1261.90 65.98L1261.90 74.62L1247.60 74.62L1247.60 127.42L1261.90 127.42" fill="url(#paint2_linear_0_1)"/>
<g id="Group 1">
<rect id="Rectangle 1" x="26" y="168" width="12" height="184" rx="5" fill="url(#paint3_linear_0_1)" fill-opacity="0.9"/>
</g>
<g id="Group 1_2">
<rect id="Rectangle 2" x="26" y="38" width="12" height="119" rx="5" fill="url(#paint4_linear_0_1)" fill-opacity="0.9"/>
</g>
<ellipse id="Ellipse 1" cx="148.5" cy="573" rx="215.5" ry="214" fill="url(#paint5_linear_0_1)" fill-opacity="0.4"/>
<rect id="Rectangle 3" x="1229" y="48" width="300" height="300" rx="25" fill="#FFFBFB" fill-opacity="0.9"/>
<g id="placeholder-logo"><g transform="translate(1229,48) translate(0.0,60.0) scale(1.2000)"><g fill="#666666">
  <path d="m88.05,27.65c-3.15,4 -3.2,51.2 -0.05,54.35c2.75,2.75 71.7,3.15 74.45,0.45c2.85,-2.9 2.3,-53.85 -0.65,-55.9c-1.95,-1.35 -7.15,-1.55 -36.95,-1.55l-34.7,0l-2.1,2.65zm69.45,3.35c0.65,0 1,8.6 1,23.75l0,23.75l-33,0l-33,0l-0.25,-23c-0.15,-12.6 -0.1,-23.45 0.15,-24.1c0.35,-0.85 8.9,-1.05 32.25,-0.75c17.55,0.2 32.3,0.35 32.85,0.35z"/>
  <path d="m99.15,37.3c-6.85,7.35 4.25,17.35 11.4,10.25c1.35,-1.35 2.45,-3.65 2.45,-5.05c0,-6.45 -9.35,-9.95 -13.85,-5.2z"/>
  <path d="m135,42.5c-0.7,0.85 -5.25,5.15 -10.1,9.6l-8.85,8.1l-3.2,-3.2l-3.15,-3.15l-6.35,6.3c-5.55,5.5 -6.35,6.75 -6.35,10.05l0,3.8l28.5,0l28.5,0l0,-8.6l0,-8.55l-8.15,-7.7c-9.35,-8.85 -9.15,-8.7 -10.85,-6.65zm7.25,15.2c0.95,0.9 1.75,2.9 1.75,4.45c6.35,-5.05 4.75,-7.15 4.9,-11.55c0.95,0 0,0 0,0l-6.65,7.1z"/>
  <path d="m53.65,110.75c0.1,4.8 0.45,8.65 0.75,8.5c0.35,-0.15 1.3,-0.25 2.1,-0.25c1.1,0 1.5,-1.2 1.5,-4.75l0,-4.75l3.25,5c4.9,7.5 6.2,6.75 6.55,-3.75c0.25,-8.15 0.15,-8.75 -1.7,-8.75c-1.65,0 -2.05,0.8 -2.3,4.75l-0.3,4.75l-2.8,-4.75c-4.85,-8.25 -7.25,-6.9 -7.05,4z"/>
  <path d="m91,108.9c0,9.65 0.3,10.1 6.1,10.1c5.8,0 7.15,-2.65 1.65,-3.2l-3.25,-0.3l-0.3,-6.75c-0.25,-5.95 -0.55,-6.75 -2.25,-6.75c-1.75,0 -1.95,0.7 -1.95,6.9z"/>
  <path d="m151,102.45c0,0.25 1,2.15 2.25,4.2c1.2,2.1 2.45,5.8 2.75,8.25c0.65,5.9 4,6.95 4,1.25c0.05,-2.1 1.25,-5.85 2.95,-8.9l2.9,-5.25l-2.5,0c-1.8,0 -2.8,0.85 -3.75,3.1l-1.3,3.05l-1.25,-3.05c-1.1,-2.6 -6.05,-4.8 -6.05,-2.65z"/>
  <path d="m191,107.45c0,9.05 3.4,8.85 4.25,-0.2c0.45,-5 0.35,-5.25 -1.9,-5.25c-2.2,0 -2.35,0.4 -2.35,5.45z"/>
  <path d="m180.8,104.75c-1.3,5.35 0.65,13.6 3.45,14.35c2.3,0.6 2.75,0.4 2.75,-1.2c0,-1.05 -0.45,-1.9 -1,-1.9c-0.55,0 -1,-1.6 -1,-3.5c0,-1.95 0.45,-3.5 1,-3.5c0.55,0 1,-0.7 1,-1.5c0,-0.85 -0.45,-1.5 -1,-1.5c-0.55,0 -1,-0.7 -1,-1.5c0,-2.1 -3.65,-1.9 -4.2,0.25z"/>
  <path d="m71.55,106.55c-2.2,2.25 -2.05,9.7 0.3,11.8c4.5,4.1 10.15,0.75 10.15,-6.1c0,-4.85 -2,-7.25 -6,-7.25c-1.55,0 -3.55,0.7 -4.45,1.55zm6.25,5.8c0.25,3.05 0,3.65 -1.6,3.65c-2.3,0 -3.25,-2.65 -2.05,-5.85c1.25,-3.35 3.3,-2.1 3.65,2.2z"/>
  <path d="m105.75,106.1c-2.5,1.45 -2.45,9.95 0.1,12.25c4.3,3.9 10.15,0.35 10.15,-6.2c0,-6 -5.15,-9.05 -10.25,-6.05zm6.05,6.25c0.25,3.05 0,3.65 -1.6,3.65c-2.3,0 -3.25,-2.65 -2.05,-5.85c1.25,-3.35 3.3,-2.1 3.65,2.2z"/>
  <path d="m119.2,106.2c-3.8,3.8 -0.4,12.55 4.4,11.35c1.9,-0.45 2.45,-0.3 2.15,0.65c-0.25,0.7 -1.55,1.2 -2.85,1.1c-4.05,-0.3 -5.35,0.45 -3.85,2.25c0.85,1.05 2.6,1.45 5.35,1.25l4.1,-0.3l0.3,-8.75l0.3,-8.75l-4.35,0c-2.4,0 -4.9,0.55 -5.55,1.2zm6.6,4.45c0.4,2.85 -2.15,4.85 -3.75,2.95c-0.9,-1.1 -0.9,-2 -0.05,-3.6c1.35,-2.5 3.4,-2.15 3.8,0.65z"/>
  <path d="m133.55,106.55c-2.2,2.25 -2.05,9.7 0.3,11.8c4.5,4.1 10.15,0.75 10.15,-6.1c0,-4.85 -2,-7.25 -6,-7.25c-1.55,0 -3.55,0.7 -4.45,1.55zm6.25,5.8c0.25,3.05 0,3.65 -1.6,3.65c-2.3,0 -3.25,-2.65 -2.05,-5.85c1.25,-3.35 3.3,-2.1 3.65,2.2z"/>
  <path d="m167.65,106.85c-3.9,4.3 -0.75,13.15 4.7,13.15c2.4,0 5.65,-2.75 5.65,-4.85c0,-1.4 -2.65,-1.55 -3.5,-0.15c-0.95,1.55 -4.5,1.15 -4.5,-0.5c0,-1.1 1.1,-1.5 4,-1.5c3.15,0 4,-0.35 4,-1.8c0,-5.3 -6.85,-8.25 -10.35,-4.35z"/>
  <path d="m191,117.5c0,2.15 0.4,2.6 2.25,2.3c1.5,-0.2 2.25,-1 2.25,-2.3c0,-1.3 -0.75,-2.1 -2.25,-2.3c-1.85,-0.3 -2.25,0.15 -2.25,2.3z"/>
 </g></g></g>
</g>
<defs>
<linearGradient id="paint0_linear_0_1" x1="0" y1="198" x2="1584" y2="198" gradientUnits="userSpaceOnUse">
<stop stop-color="#3D052C"/>
<stop offset="1"/>
</linearGradient>
<linearGradient id="paint1_linear_0_1" x1="323" y1="-224" x2="323" y2="352" gradientUnits="userSpaceOnUse">
<stop stop-color="#28F6F2" stop-opacity="0.4"/>
<stop offset="1" stop-color="#17908E" stop-opacity="0.7"/>
</linearGradient>
<linearGradient id="paint2_linear_0_1" x1="148.5" y1="38" x2="148.5" y2="140" gradientUnits="userSpaceOnUse">
<stop stop-color="white"/>
<stop offset="1" stop-color="#999999"/>
</linearGradient>
<linearGradient id="paint3_linear_0_1" x1="38" y1="260" x2="26" y2="260" gradientUnits="userSpaceOnUse">
<stop stop-color="#D9D9D9"/>
<stop offset="1" stop-color="#737373"/>
</linearGradient>
<linearGradient id="paint4_linear_0_1" x1="38" y1="97.5" x2="26" y2="97.5" gradientUnits="userSpaceOnUse">
<stop stop-color="#D9D9D9"/>
<stop offset="1" stop-color="#737373"/>
</linearGradient>
<linearGradient id="paint5_linear_0_1" x1="27.5" y1="434.5" x2="148.5" y2="787" gradientUnits="userSpaceOnUse">
<stop stop-color="#2E21BC"/>
<stop offset="1" stop-color="#150F56"/>
</linearGradient>
<clipPath id="clip0_0_1">
<rect width="1584" height="396" fill="white"/>
</clipPath>
</defs>
</svg>
